{"glyphs":{"0":{"ha":654,"x_min":79,"x_max":608,"o":"m 282 -10 q 79 250 79 -10 q 92 456 79 316 q 122 699 104 595 q 148 833 141 802 q 166 903 154 864 q 191 966 178 941 q 224 1016 203 990 q 269 1057 244 1042 q 406 1089 326 1089 q 608 823 608 1089 q 595 618 608 757 q 566 379 583 480 q 541 246 548 277 q 523 176 534 214 q 498 113 511 138 q 465 63 485 88 q 419 23 444 37 q 282 -10 363 -10 m 301 760 q 293 715 301 760 q 269 506 285 669 q 253 248 253 342 q 302 153 253 153 q 351 191 332 153 q 387 318 371 228 q 419 572 403 408 q 435 831 435 736 q 385 926 435 926 q 337 888 357 926 q 301 760 317 850 z "},"1":{"ha":654,"x_min":84,"x_max":525,"o":"m 271 1074 l 484 1081 q 496 1063 496 1081 l 395 172 l 509 176 q 525 159 525 176 l 509 29 q 492 11 507 12 l 101 -3 q 84 14 84 -2 l 100 144 q 117 161 102 161 l 224 165 l 307 896 l 201 892 q 184 908 184 893 q 211 979 184 917 q 246 1056 237 1040 q 271 1074 255 1072 z "},"2":{"ha":654,"x_min":86,"x_max":581,"o":"m 407 817 q 326 918 407 918 q 243 909 302 918 q 177 900 185 900 q 162 918 162 900 l 178 1046 q 182 1058 179 1055 q 208 1067 186 1061 q 282 1079 231 1073 q 369 1085 334 1085 q 523 1021 465 1085 q 581 859 581 958 q 540 670 581 761 q 431 481 499 580 q 325 315 363 382 q 272 182 288 248 l 515 192 q 532 174 532 191 l 515 31 q 497 12 514 14 l 103 -3 q 86 16 86 -1 l 86 51 q 142 302 86 176 q 274 539 193 415 q 381 719 355 663 q 407 817 407 774 z "},"3":{"ha":654,"x_min":85,"x_max":591,"o":"m 336 918 l 186 900 q 172 918 172 900 l 188 1046 q 205 1064 190 1061 q 386 1085 290 1085 q 536 1021 482 1085 q 591 865 591 958 q 496 620 591 693 q 352 564 442 578 q 411 568 379 568 q 537 519 500 568 q 575 378 575 471 q 465 79 575 190 q 238 -7 381 -7 q 88 7 98 -7 q 85 20 85 12 l 101 149 q 107 164 103 162 q 116 165 111 165 q 251 154 116 165 q 359 200 315 154 q 403 332 403 247 q 379 444 403 416 q 314 471 356 471 l 201 464 q 186 481 186 464 l 199 591 q 220 610 201 607 q 250 615 239 613 q 282 622 260 616 q 313 631 303 627 q 341 645 323 636 q 367 664 358 654 q 387 689 376 673 q 404 722 399 704 q 417 817 417 768 q 336 918 417 918 z "},"4":{"ha":654,"x_min":26,"x_max":623,"o":"m 572 1065 l 501 440 l 607 443 q 623 425 623 442 l 610 305 q 605 292 608 296 q 593 288 602 289 l 484 284 l 454 22 q 436 5 452 6 l 296 -3 q 282 10 282 -3 l 323 279 l 45 269 q 26 281 26 269 q 35 307 26 284 l 354 1057 q 386 1074 360 1073 l 555 1082 q 572 1065 572 1082 m 238 433 l 345 435 l 397 846 l 238 433 z "},"5":{"ha":654,"x_min":96,"x_max":603,"o":"m 566 906 l 335 903 l 308 646 q 423 659 380 659 q 500 635 467 659 q 552 572 534 612 q 586 400 586 495 q 567 235 586 305 q 510 109 549 164 q 249 -7 428 -7 q 99 7 109 -7 q 96 20 96 12 l 112 149 q 130 165 114 165 q 185 160 141 165 q 266 154 229 154 q 382 205 349 154 q 414 345 414 257 q 391 467 414 432 q 318 502 368 502 q 218 492 268 502 q 152 482 168 482 q 136 500 136 482 l 199 1057 q 217 1074 201 1072 l 585 1086 q 603 1068 603 1086 l 584 924 q 566 906 581 907 z "},"6":{"ha":654,"x_min":88,"x_max":601,"o":"m 558 911 l 435 924 q 347 894 376 924 q 304 790 318 865 q 281 644 290 716 q 401 684 347 684 q 555 610 509 684 q 601 399 601 536 q 316 -10 601 -10 q 141 69 193 -10 q 88 304 88 149 q 105 558 88 411 q 137 769 123 705 q 159 858 152 833 q 180 915 167 883 q 208 969 193 946 q 247 1015 223 991 q 299 1053 271 1038 q 438 1085 364 1085 q 546 1079 512 1085 q 584 1070 579 1074 q 588 1056 588 1066 l 572 926 q 558 911 570 911 m 334 543 q 269 532 302 543 q 258 335 258 400 q 260 246 258 270 q 270 194 262 222 q 344 134 286 134 q 424 219 404 134 q 440 395 440 289 q 334 543 440 543 z "},"7":{"ha":654,"x_min":138,"x_max":633,"o":"m 197 1074 l 618 1088 q 633 1070 632 1088 l 615 926 l 342 18 q 326 3 338 3 l 179 -3 q 164 10 164 -1 l 435 905 l 155 892 q 138 909 138 893 q 153 978 138 918 q 173 1057 168 1039 q 197 1074 179 1073 z "},"8":{"ha":654,"x_min":66,"x_max":625,"o":"m 625 865 q 584 711 625 796 q 471 567 544 626 q 600 326 600 456 q 527 79 600 168 q 300 -10 454 -10 q 78 151 122 -10 q 66 248 66 195 q 246 591 66 475 q 171 694 197 642 q 146 809 146 747 q 160 917 146 871 q 198 995 174 963 q 255 1048 222 1026 q 399 1089 318 1089 q 569 1028 513 1089 q 625 865 625 967 m 223 273 q 323 143 223 143 q 430 304 430 143 q 404 422 430 373 q 333 513 378 471 q 251 404 279 469 q 223 273 223 338 m 303 787 q 320 704 303 739 q 375 639 338 670 q 436 725 412 673 q 460 832 460 778 q 440 916 460 887 q 390 945 421 945 q 303 787 303 945 z "},"9":{"ha":654,"x_min":115,"x_max":628,"o":"m 158 168 l 281 155 q 369 185 340 155 q 412 289 398 214 q 435 435 427 363 q 315 395 370 395 q 161 469 208 395 q 115 680 115 543 q 400 1089 115 1089 q 575 1010 523 1089 q 628 774 628 930 q 611 521 628 668 q 579 310 593 374 q 557 221 564 246 q 536 164 549 196 q 508 110 524 133 q 469 64 493 87 q 417 26 446 41 q 278 -6 352 -6 q 171 0 204 -6 q 133 9 137 5 q 128 23 128 13 l 144 153 q 158 168 146 168 m 382 536 q 447 547 414 536 q 458 744 458 679 q 456 833 458 809 q 446 886 454 857 q 372 945 430 945 q 292 860 312 945 q 276 684 276 790 q 382 536 276 536 z "}," ":{"ha":285,"x_min":0,"x_max":0,"o":""},"!":{"ha":397,"x_min":71,"x_max":379,"o":"m 379 1072 l 278 313 q 261 296 276 296 l 142 291 q 127 305 127 292 l 200 1068 q 218 1084 201 1082 l 362 1089 q 379 1072 379 1088 m 170 -7 q 148 -7 170 -7 q 99 21 126 -7 q 71 93 71 49 q 107 171 71 136 q 188 205 143 205 q 259 178 232 205 q 286 105 286 150 q 250 27 286 61 q 170 -7 214 -7 z "},"\"":{"ha":665,"x_min":166,"x_max":656,"o":"m 357 1154 l 291 745 q 286 732 289 736 q 274 728 283 728 l 189 724 q 166 738 167 726 l 184 1151 q 200 1167 185 1166 l 336 1172 q 357 1154 357 1171 m 656 1154 l 590 745 q 585 732 588 736 q 573 728 582 728 l 488 724 q 465 738 466 726 l 483 1151 q 499 1167 484 1166 l 635 1172 q 656 1154 656 1171 z "},"#":{"ha":878,"x_min":71,"x_max":871,"o":"m 502 1082 l 451 806 l 589 810 l 639 1078 q 644 1090 640 1087 q 656 1095 647 1094 l 762 1099 q 779 1082 779 1098 l 729 815 l 856 820 q 871 802 871 819 l 859 694 q 842 677 857 677 l 703 672 l 658 431 l 811 436 q 828 418 828 435 l 814 310 q 809 297 812 301 q 798 292 806 293 l 631 286 l 583 20 q 576 4 580 7 q 565 1 572 1 l 456 -3 q 442 10 442 -1 l 492 281 l 353 277 l 306 20 q 299 4 303 7 q 288 1 295 1 l 180 -3 q 165 10 165 -1 l 214 272 l 88 268 q 71 284 71 269 l 83 393 q 101 410 84 409 l 240 415 l 285 658 l 132 652 q 115 669 115 653 l 127 777 q 144 795 129 795 l 311 800 l 362 1078 q 380 1095 365 1094 l 485 1099 q 502 1082 502 1098 m 425 663 l 380 420 l 518 425 l 563 667 l 425 663 z "},"$":{"ha":654,"x_min":123,"x_max":559,"o":"m 490 1200 l 469 1008 q 464 994 468 997 q 452 989 460 990 l 347 977 q 330 994 332 977 l 352 1195 q 370 1213 353 1211 l 473 1216 q 490 1200 490 1216 m 388 117 l 359 -125 q 342 -143 358 -143 l 238 -146 q 221 -130 222 -146 l 236 10 q 253 27 237 24 l 388 117 m 140 -10 q 123 6 123 -10 l 140 148 q 158 164 143 163 q 298 198 264 175 q 332 288 332 220 q 297 465 332 356 q 252 610 262 574 q 220 799 220 725 q 243 924 220 872 q 311 1008 267 977 q 541 1067 397 1067 q 559 1050 559 1067 l 541 910 q 524 892 538 893 q 393 814 393 883 q 449 563 393 750 q 505 296 505 376 q 140 -10 505 -10 z "},"%":{"ha":985,"x_min":98,"x_max":939,"o":"m 897 1036 l 258 -3 q 238 -18 250 -18 l 156 26 q 143 42 143 33 q 146 58 143 51 l 785 1096 q 804 1112 793 1112 l 887 1067 q 901 1051 901 1059 q 897 1036 901 1043 m 291 607 q 243 607 291 607 q 146 669 195 607 q 98 838 98 730 q 157 1023 98 946 q 313 1100 217 1100 q 458 1039 410 1100 q 507 868 507 977 q 447 683 507 760 q 291 607 388 607 m 214 841 q 298 720 214 720 q 366 761 342 720 q 390 867 390 802 q 306 988 390 988 q 237 946 261 988 q 214 841 214 905 m 723 -10 q 675 -10 723 -10 q 578 51 627 -10 q 530 220 530 113 q 590 406 530 328 q 745 483 649 483 q 890 421 842 483 q 939 250 939 359 q 879 66 939 142 q 723 -10 819 -10 m 645 223 q 730 101 645 101 q 798 143 774 101 q 822 248 822 184 q 739 370 822 370 q 669 329 694 370 q 645 223 645 287 z "},"&":{"ha":715,"x_min":50,"x_max":725,"o":"m 303 162 l 412 165 q 425 147 425 165 l 410 17 q 393 -1 407 1 q 260 -7 325 -7 q 103 57 156 -7 q 50 216 50 121 q 114 411 50 323 q 258 557 170 486 q 195 831 195 720 q 259 1015 195 941 q 444 1089 323 1089 q 596 1028 536 1089 q 656 873 656 968 q 593 692 656 774 q 450 551 540 624 q 585 280 504 431 q 719 41 666 129 q 725 21 725 31 q 707 3 725 4 l 550 -3 q 532 10 538 -2 q 314 431 391 267 q 222 247 222 331 q 303 162 222 162 m 361 838 q 397 678 361 777 q 490 861 490 782 q 474 914 490 894 q 429 935 458 935 q 361 838 361 935 z "},"'":{"ha":366,"x_min":166,"x_max":357,"o":"m 357 1154 l 291 745 q 286 732 289 736 q 274 728 283 728 l 189 724 q 166 738 167 726 l 184 1151 q 200 1167 185 1166 l 336 1172 q 357 1154 357 1171 z "},"(":{"ha":471,"x_min":124,"x_max":565,"o":"m 357 -290 q 183 -223 243 -290 q 124 -32 124 -157 q 153 368 124 94 q 206 777 182 641 q 240 955 230 913 q 274 1045 251 996 q 330 1120 297 1095 q 545 1182 406 1182 q 561 1178 556 1182 q 565 1162 565 1174 l 550 1043 q 535 1026 548 1026 q 433 989 469 1026 q 376 827 397 951 q 322 429 355 702 q 290 -20 290 156 q 376 -130 290 -130 q 390 -146 390 -130 l 374 -272 q 357 -290 372 -290 z "},")":{"ha":471,"x_min":-64,"x_max":377,"o":"m 144 1182 q 318 1116 258 1182 q 377 924 377 1050 q 348 525 377 798 q 295 115 319 252 q 261 -62 271 -21 q 227 -153 250 -104 q 172 -228 204 -202 q -43 -290 95 -290 q -59 -286 -55 -290 q -64 -269 -64 -281 l -49 -151 q -34 -134 -47 -134 q 68 -96 33 -134 q 125 66 104 -59 q 179 464 146 191 q 212 913 212 736 q 125 1022 212 1022 q 111 1039 111 1022 l 127 1164 q 144 1182 129 1182 z "},"*":{"ha":673,"x_min":127,"x_max":647,"o":"m 403 1139 l 511 1114 q 525 1093 525 1110 l 432 906 l 622 937 q 637 923 635 935 l 647 817 q 632 798 647 798 l 440 826 l 524 661 q 524 653 524 659 q 517 642 524 647 l 418 601 q 406 600 413 600 q 395 608 399 600 l 363 807 l 222 667 q 213 663 218 663 q 204 668 208 663 l 132 747 q 127 762 127 757 q 132 772 127 768 l 314 867 l 144 954 q 137 963 137 958 q 139 974 137 968 l 193 1065 q 207 1076 201 1076 q 216 1074 213 1076 l 359 932 l 390 1127 q 403 1139 393 1139 z "},"+":{"ha":654,"x_min":108,"x_max":600,"o":"m 456 750 l 439 602 l 583 610 q 600 593 600 609 l 585 471 q 568 454 583 454 l 422 446 l 404 277 q 386 260 401 260 l 262 256 q 247 270 247 257 l 266 437 l 125 430 q 108 448 108 431 l 122 569 q 140 587 124 587 l 283 594 l 300 746 q 319 763 303 762 l 438 767 q 456 750 456 766 z "},",":{"ha":397,"x_min":67,"x_max":281,"o":"m 89 -239 q 107 -153 89 -230 q 131 -3 125 -76 q 83 33 100 7 q 67 98 67 59 q 103 171 67 136 q 184 205 138 205 q 256 174 230 205 q 281 98 281 143 q 245 -80 281 17 q 159 -248 189 -229 q 102 -253 151 -253 q 89 -239 89 -253 z "},"-":{"ha":654,"x_min":105,"x_max":596,"o":"m 136 587 l 581 603 q 596 586 596 602 l 582 464 q 565 447 580 448 l 121 430 q 105 448 105 431 l 119 569 q 136 587 121 587 z "},".":{"ha":397,"x_min":67,"x_max":281,"o":"m 165 -7 q 143 -7 165 -7 q 94 21 121 -7 q 67 93 67 49 q 103 171 67 136 q 183 205 138 205 q 254 178 227 205 q 281 106 281 150 q 245 27 281 62 q 165 -7 210 -7 z "},"/":{"ha":352,"x_min":-60,"x_max":433,"o":"m 433 1142 l 72 -256 q 54 -274 68 -274 l -46 -252 q -60 -237 -60 -248 l 300 1163 q 306 1176 302 1173 q 319 1181 309 1180 l 415 1159 q 433 1142 433 1156 z "},":":{"ha":397,"x_min":67,"x_max":342,"o":"m 165 -7 q 143 -7 165 -7 q 94 21 121 -7 q 67 93 67 49 q 103 171 67 136 q 183 205 138 205 q 254 178 227 205 q 281 106 281 150 q 245 27 281 62 q 165 -7 210 -7 m 225 530 q 203 530 225 530 q 154 558 181 530 q 127 630 127 587 q 163 709 127 674 q 243 743 199 743 q 315 715 288 743 q 342 644 342 688 q 306 565 342 600 q 225 530 270 530 z "},";":{"ha":397,"x_min":67,"x_max":342,"o":"m 89 -239 q 107 -153 89 -230 q 131 -3 125 -76 q 83 33 100 7 q 67 98 67 59 q 103 171 67 136 q 184 205 138 205 q 256 174 230 205 q 281 98 281 143 q 245 -80 281 17 q 159 -248 189 -229 q 102 -253 151 -253 q 89 -239 89 -253 m 225 530 q 203 530 225 530 q 154 558 181 530 q 127 630 127 587 q 163 709 127 674 q 243 743 199 743 q 315 715 288 743 q 342 644 342 688 q 306 565 342 600 q 225 530 270 530 z "},"<":{"ha":654,"x_min":144,"x_max":553,"o":"m 328 453 l 505 238 q 510 228 510 233 q 503 216 510 222 l 406 145 q 396 140 399 140 q 382 150 392 140 l 149 424 q 144 433 144 429 q 159 498 144 484 l 444 730 q 457 739 452 739 q 467 735 463 739 l 550 647 q 553 637 553 642 q 549 628 553 632 l 328 453 z "},"=":{"ha":654,"x_min":83,"x_max":608,"o":"m 149 718 l 593 734 q 608 717 608 733 l 594 595 q 577 578 592 578 l 134 561 q 117 578 117 562 l 131 700 q 149 718 133 718 m 114 410 l 558 426 q 574 409 574 425 l 559 287 q 543 270 557 271 l 99 253 q 83 271 83 254 l 96 392 q 114 410 98 410 z "},">":{"ha":654,"x_min":134,"x_max":543,"o":"m 360 426 l 182 641 q 178 651 178 646 q 185 663 178 656 l 281 734 q 292 739 288 739 q 306 729 296 739 l 539 455 q 543 446 543 450 q 529 381 543 395 l 244 149 q 230 140 235 140 q 221 144 225 140 l 138 232 q 134 242 134 237 q 138 251 134 247 l 360 426 z "},"?":{"ha":555,"x_min":130,"x_max":549,"o":"m 177 291 q 163 305 163 291 q 197 499 163 420 q 271 624 229 571 q 355 746 334 703 q 376 840 376 789 q 294 928 376 928 q 207 918 258 928 q 145 909 155 909 q 130 928 130 909 l 146 1057 q 163 1075 148 1069 q 337 1096 281 1096 q 491 1032 433 1096 q 549 875 549 968 q 523 722 549 782 q 456 610 496 662 q 402 538 416 558 q 366 479 388 517 q 328 314 328 409 q 311 296 328 297 l 177 291 m 231 -7 q 209 -7 231 -7 q 159 21 186 -7 q 132 93 132 49 q 168 171 132 136 q 248 205 203 205 q 320 178 292 205 q 347 106 347 150 q 311 27 347 62 q 231 -7 275 -7 z "},"@":{"ha":1443,"x_min":117,"x_max":1367,"o":"m 1040 -83 q 1057 -101 1057 -83 l 1047 -221 q 1031 -239 1046 -235 q 715 -286 880 -286 q 411 -211 551 -286 q 194 2 271 -136 q 117 314 117 141 q 172 632 117 486 q 321 882 227 778 q 546 1046 416 985 q 806 1107 677 1107 q 1035 1066 935 1107 q 1208 951 1135 1025 q 1324 771 1282 878 q 1367 555 1367 664 q 1350 369 1367 446 q 1304 237 1333 292 q 1234 140 1275 182 q 1149 72 1193 98 q 1054 28 1105 45 q 866 -1 964 -1 q 852 13 852 0 l 844 166 q 629 -7 765 -7 q 468 113 512 -7 q 445 292 445 178 q 463 496 445 406 q 492 626 481 587 q 521 704 503 665 q 564 769 540 743 q 691 826 617 826 q 798 797 764 826 q 854 708 831 767 l 861 799 q 878 815 863 814 l 1012 820 q 1030 802 1030 819 l 960 174 q 1150 271 1088 184 q 1212 536 1212 358 q 1157 758 1212 663 q 1010 901 1103 852 q 786 950 917 950 q 531 868 654 950 q 337 646 408 786 q 266 342 266 507 q 390 -3 266 123 q 747 -130 515 -130 q 934 -106 835 -130 q 1040 -83 1033 -83 m 616 311 q 702 149 616 149 q 764 183 741 149 q 805 323 787 218 q 823 477 823 429 q 823 537 823 525 q 820 572 822 550 q 812 608 818 594 q 798 637 807 623 q 741 667 781 667 q 679 632 702 667 q 643 538 656 597 q 616 311 616 409 z "},"A":{"ha":654,"x_min":20,"x_max":580,"o":"m 500 1041 l 580 20 q 562 3 580 4 l 420 -3 q 406 10 406 -3 l 396 234 l 242 228 l 191 19 q 186 6 189 9 q 174 2 182 3 l 33 -3 q 20 10 20 -3 l 317 1036 q 336 1052 322 1051 l 485 1057 q 500 1041 499 1057 m 372 762 l 277 372 l 390 376 l 372 762 z "},"B":{"ha":686,"x_min":75,"x_max":668,"o":"m 668 844 q 512 565 668 642 q 595 496 565 543 q 625 377 625 450 q 603 239 625 304 q 537 121 582 174 q 235 2 442 9 l 90 -3 q 75 10 75 -1 l 191 1031 q 197 1047 193 1043 q 282 1058 202 1052 q 435 1063 362 1063 q 612 1005 557 1063 q 668 844 668 946 m 338 498 q 301 497 310 498 l 264 167 q 411 229 361 167 q 461 391 461 290 q 429 468 461 438 q 338 498 396 498 m 313 605 q 507 811 507 606 q 396 919 507 919 q 347 917 365 919 l 313 605 z "},"C":{"ha":593,"x_min":94,"x_max":607,"o":"m 511 31 q 506 19 509 22 q 439 4 503 16 q 312 -7 376 -7 q 150 61 206 -7 q 94 248 94 130 q 144 734 94 457 q 209 944 170 884 q 307 1032 250 1007 q 459 1063 378 1063 q 567 1059 540 1063 q 598 1054 595 1055 q 607 1037 607 1051 l 591 911 q 578 893 589 893 q 528 899 567 893 q 464 905 488 905 q 365 872 399 905 q 314 746 331 839 q 282 495 298 652 q 267 255 267 338 q 353 157 267 157 q 441 165 378 157 q 512 174 503 174 q 526 157 526 174 l 511 31 z "},"D":{"ha":718,"x_min":75,"x_max":680,"o":"m 192 1036 q 197 1048 193 1044 q 265 1057 200 1051 q 444 1063 330 1063 q 618 998 557 1063 q 680 819 680 932 q 631 323 680 604 q 548 102 606 175 q 382 15 495 36 q 258 3 332 6 l 90 -3 q 75 10 75 -2 l 192 1036 m 347 905 l 264 167 q 405 206 366 176 q 459 322 444 237 q 490 555 475 408 q 505 798 505 703 q 478 880 505 853 q 405 907 451 907 q 347 905 358 907 z "},"E":{"ha":614,"x_min":75,"x_max":598,"o":"m 507 464 l 296 456 l 264 178 l 524 186 q 542 169 542 186 l 524 28 q 507 11 523 14 l 90 -3 q 75 10 75 -3 l 192 1036 q 210 1052 195 1050 l 581 1065 q 598 1046 598 1063 l 581 906 q 564 888 579 889 l 345 882 l 316 629 l 525 637 q 543 619 543 636 l 525 481 q 507 464 522 465 z "},"F":{"ha":604,"x_min":75,"x_max":599,"o":"m 513 457 l 296 450 l 247 22 q 229 5 244 6 l 90 -3 q 75 10 75 -3 l 193 1036 q 210 1052 195 1050 l 582 1067 q 599 1049 599 1065 l 582 909 q 564 890 580 891 l 346 883 l 316 623 l 530 630 q 548 612 548 629 l 530 474 q 513 457 528 458 z "},"G":{"ha":650,"x_min":94,"x_max":606,"o":"m 577 893 l 463 905 q 368 875 401 905 q 315 747 332 842 q 282 495 298 652 q 267 269 267 338 q 289 171 267 199 q 342 142 311 142 q 392 142 373 142 l 437 527 q 454 543 439 542 l 582 548 q 600 532 600 547 l 543 23 q 525 6 541 8 q 305 -7 435 -7 q 106 142 150 -7 q 94 224 94 184 q 96 321 94 265 q 144 734 104 520 q 209 944 170 884 q 307 1032 250 1007 q 459 1063 378 1063 q 568 1059 541 1063 q 598 1054 595 1055 q 606 1037 606 1051 l 591 911 q 577 893 589 893 z "},"H":{"ha":720,"x_min":75,"x_max":705,"o":"m 705 1041 l 589 19 q 572 2 587 3 l 433 -3 q 418 10 418 -3 l 468 456 l 296 450 l 247 19 q 229 2 245 3 l 90 -3 q 75 10 75 -3 l 191 1036 q 209 1052 194 1050 l 345 1057 q 363 1041 363 1057 l 313 609 l 486 615 l 534 1036 q 552 1052 536 1051 l 688 1057 q 705 1041 705 1057 z "},"I":{"ha":378,"x_min":75,"x_max":363,"o":"m 363 1040 l 247 19 q 229 2 245 3 l 90 -3 q 75 10 75 -3 l 192 1036 q 210 1052 195 1050 l 345 1057 q 363 1040 363 1056 z "},"J":{"ha":475,"x_min":0,"x_max":467,"o":"m 467 1040 l 383 297 q 268 56 364 123 q 17 -7 178 -7 q 0 9 0 -7 l 16 141 q 33 157 20 157 q 190 214 157 157 q 210 282 205 239 l 296 1036 q 300 1048 297 1044 q 313 1052 303 1051 l 449 1057 q 467 1040 467 1055 z "},"K":{"ha":663,"x_min":75,"x_max":687,"o":"m 627 14 q 610 3 627 3 l 464 -3 q 449 10 452 -2 l 303 518 l 247 19 q 229 2 245 3 l 89 -3 q 75 10 75 -3 l 191 1036 q 195 1048 192 1044 q 208 1052 198 1051 l 344 1057 q 361 1040 361 1056 l 310 584 l 506 1036 q 528 1052 513 1051 l 669 1057 q 687 1042 687 1055 q 682 1025 687 1034 l 463 564 l 627 22 q 627 14 627 20 z "},"L":{"ha":600,"x_min":75,"x_max":542,"o":"m 361 1040 l 264 178 l 524 189 q 542 171 542 188 l 524 31 q 507 12 522 13 l 89 -3 q 75 10 75 -3 l 191 1036 q 195 1048 192 1044 q 208 1052 198 1051 l 344 1057 q 361 1040 361 1056 z "},"M":{"ha":924,"x_min":75,"x_max":909,"o":"m 345 10 l 288 822 l 237 20 q 219 2 235 3 l 90 -3 q 75 10 75 -1 l 191 1036 q 196 1048 193 1044 q 209 1052 199 1051 l 380 1058 q 397 1042 396 1057 l 459 225 l 694 1036 q 713 1052 698 1051 l 892 1058 q 909 1042 909 1057 l 793 19 q 775 2 791 3 l 635 -3 q 621 10 621 -3 l 753 837 l 511 18 q 491 2 505 3 l 359 -3 q 345 10 346 -1 z "},"N":{"ha":736,"x_min":75,"x_max":722,"o":"m 722 1043 l 605 22 q 587 5 602 6 l 453 -3 q 439 10 441 -3 l 297 734 l 247 19 q 229 2 246 3 l 90 -3 q 75 10 75 -3 l 192 1036 q 210 1052 195 1050 l 347 1059 q 360 1056 357 1059 q 365 1043 363 1052 l 503 359 l 550 1036 q 568 1052 551 1051 l 703 1059 q 722 1043 722 1059 z "},"O":{"ha":710,"x_min":94,"x_max":674,"o":"m 325 -10 q 267 -10 325 -10 q 152 58 210 -10 q 94 227 94 125 q 146 739 94 486 q 260 1005 187 938 q 443 1067 330 1067 q 615 999 557 1067 q 674 830 674 930 q 661 588 674 730 q 629 351 648 446 q 597 212 610 256 q 561 123 584 168 q 507 52 538 79 q 325 -10 439 -10 m 342 150 q 452 309 428 150 q 485 570 469 414 q 501 791 501 727 q 480 881 501 854 q 422 907 460 907 q 315 748 343 907 q 283 494 299 654 q 267 268 267 334 q 288 176 267 202 q 342 150 309 150 z "},"P":{"ha":694,"x_min":75,"x_max":681,"o":"m 656 633 q 292 406 598 407 l 249 22 q 232 5 247 5 l 90 -3 q 75 10 75 -1 l 192 1036 q 210 1052 195 1050 q 452 1063 336 1063 q 681 844 681 1063 q 656 633 681 724 m 347 905 l 309 563 q 467 612 426 563 q 507 802 507 661 q 478 882 507 856 q 404 907 449 907 q 347 905 358 907 z "},"Q":{"ha":710,"x_min":94,"x_max":674,"o":"m 241 -97 q 258 -3 241 -55 q 135 79 177 16 q 94 236 94 143 q 106 470 94 329 q 139 706 119 611 q 172 843 159 801 q 208 931 184 886 q 260 1005 231 977 q 443 1067 330 1067 q 615 999 557 1067 q 674 830 674 930 q 661 588 674 730 q 630 353 648 446 q 599 219 611 260 q 567 136 587 178 q 521 65 547 93 q 367 -7 463 3 q 446 -77 367 -77 q 522 -71 481 -77 q 576 -64 562 -64 q 591 -81 591 -64 l 579 -182 q 564 -199 578 -195 q 391 -218 485 -218 q 241 -97 241 -218 m 342 150 q 452 309 428 150 q 485 570 469 414 q 501 791 501 727 q 480 881 501 854 q 422 907 460 907 q 315 748 343 907 q 283 494 299 654 q 267 268 267 334 q 288 176 267 202 q 342 150 309 150 z "},"R":{"ha":700,"x_min":75,"x_max":682,"o":"m 652 16 q 633 3 652 3 l 481 -3 q 466 10 471 -2 l 296 441 l 248 19 q 231 2 246 3 l 90 -3 q 75 10 75 -1 l 192 1031 q 198 1047 193 1043 q 270 1058 203 1052 q 449 1063 337 1063 q 622 1004 561 1063 q 682 851 682 945 q 660 686 682 758 q 586 557 637 614 q 457 473 534 500 l 650 24 q 652 16 652 20 m 348 905 l 310 568 q 483 682 435 576 q 509 801 509 741 q 484 885 509 861 q 412 909 459 909 q 348 905 366 909 z "},"S":{"ha":484,"x_min":43,"x_max":479,"o":"m 60 -10 q 43 6 43 -10 l 60 148 q 77 164 62 163 q 217 198 183 175 q 251 288 251 220 q 216 465 251 356 q 172 610 182 574 q 139 799 139 725 q 163 924 139 872 q 231 1008 186 977 q 460 1067 316 1067 q 479 1050 479 1067 l 460 910 q 444 892 458 893 q 312 814 312 883 q 368 563 312 750 q 424 296 424 376 q 60 -10 424 -10 z "},"T":{"ha":537,"x_min":104,"x_max":593,"o":"m 138 1049 l 578 1065 q 593 1048 593 1064 l 576 909 q 571 895 574 899 q 559 890 568 890 l 427 885 l 328 19 q 311 2 326 3 l 170 -3 q 156 10 156 -3 l 256 880 l 121 876 q 104 891 104 876 l 121 1032 q 138 1049 121 1048 z "},"U":{"ha":721,"x_min":105,"x_max":706,"o":"m 363 1040 l 285 345 q 275 231 275 265 q 294 174 275 197 q 356 150 313 150 q 421 193 399 150 q 454 330 444 235 l 534 1036 q 552 1052 536 1051 l 689 1057 q 706 1041 706 1057 l 628 345 q 518 53 604 132 q 336 -10 448 -10 q 164 48 224 -10 q 105 222 105 107 q 112 336 105 277 l 192 1036 q 196 1048 193 1045 q 209 1052 199 1051 l 346 1057 q 363 1040 363 1056 z "},"V":{"ha":623,"x_min":113,"x_max":671,"o":"m 192 14 l 113 1036 q 132 1052 113 1051 l 273 1057 q 288 1044 288 1057 l 319 279 l 499 1036 q 504 1048 501 1044 q 515 1052 507 1051 l 656 1057 q 671 1044 671 1057 l 373 19 q 357 3 368 3 l 207 -3 q 192 14 193 -2 z "},"W":{"ha":933,"x_min":127,"x_max":975,"o":"m 625 1057 q 640 1044 640 1057 l 648 260 l 817 1036 q 833 1052 821 1050 l 961 1057 q 975 1044 975 1055 l 702 20 q 687 3 697 5 l 530 -3 q 515 14 515 -2 l 509 650 l 378 19 q 362 3 374 3 l 199 -3 q 184 14 185 -2 l 127 1036 q 145 1052 127 1051 l 286 1057 q 301 1044 301 1057 l 311 247 l 483 1036 q 504 1052 486 1050 l 625 1057 z "},"X":{"ha":640,"x_min":10,"x_max":688,"o":"m 688 1041 l 451 519 l 597 22 q 598 16 598 20 q 581 3 598 4 l 437 -3 q 422 10 427 -2 l 326 376 l 183 22 q 164 2 175 3 l 24 -3 q 10 10 10 -3 l 256 574 l 118 1036 q 135 1052 118 1051 l 275 1057 q 293 1040 288 1056 l 383 710 l 517 1036 q 535 1052 523 1051 l 671 1057 q 688 1041 688 1057 z "},"Y":{"ha":608,"x_min":103,"x_max":668,"o":"m 277 1044 l 354 656 l 493 1036 q 510 1052 498 1051 l 650 1057 q 663 1051 658 1056 q 668 1041 668 1046 l 415 475 l 363 19 q 345 2 361 3 l 205 -3 q 191 10 191 -3 l 241 460 l 103 1041 q 121 1052 103 1050 l 259 1057 q 277 1044 274 1057 z "},"Z":{"ha":589,"x_min":27,"x_max":610,"o":"m 181 1052 l 593 1067 q 610 1049 610 1066 l 273 180 l 493 187 q 509 170 509 186 l 493 29 q 475 12 490 14 l 42 -3 q 27 10 27 -3 l 367 885 l 163 878 q 146 893 146 879 l 163 1036 q 181 1052 165 1050 z "},"[":{"ha":462,"x_min":76,"x_max":559,"o":"m 527 1021 l 385 1016 l 256 -139 l 392 -134 q 409 -151 409 -135 l 395 -275 q 377 -292 392 -291 l 91 -302 q 76 -289 76 -302 l 238 1152 q 255 1168 240 1168 l 542 1178 q 559 1160 559 1177 l 545 1038 q 527 1021 542 1022 z "},"\\":{"ha":352,"x_min":42,"x_max":413,"o":"m 279 -256 l 42 1142 q 60 1159 42 1155 l 158 1181 q 170 1177 168 1180 q 175 1163 173 1173 l 413 -237 q 398 -252 413 -247 l 296 -274 q 284 -270 288 -274 q 279 -256 281 -266 z "},"]":{"ha":462,"x_min":-64,"x_max":420,"o":"m -31 -140 l 111 -135 l 240 1020 l 104 1015 q 87 1032 87 1016 l 101 1156 q 119 1173 104 1172 l 405 1183 q 420 1170 420 1183 l 258 -271 q 241 -288 256 -287 l -46 -297 q -64 -279 -64 -296 l -49 -157 q -31 -140 -46 -141 z "},"^":{"ha":654,"x_min":44,"x_max":666,"o":"m 355 709 l 155 455 q 145 451 151 451 q 136 454 140 451 l 48 537 q 44 546 44 541 q 53 560 44 551 l 323 883 q 336 892 328 889 q 372 895 344 895 q 405 890 400 895 l 656 557 q 666 544 666 548 q 661 532 666 539 l 568 452 q 554 444 561 444 q 545 449 548 444 l 355 709 z "},"_":{"ha":768,"x_min":-92,"x_max":768,"o":"m -75 -205 q -92 -188 -92 -204 l -77 -66 q -60 -49 -75 -49 l 752 -19 q 768 -37 768 -20 l 753 -158 q 749 -172 752 -168 q 736 -176 745 -176 l -75 -205 z "},"`":{"ha":595,"x_min":180,"x_max":415,"o":"m 345 1121 l 415 849 q 399 829 415 830 l 319 827 q 297 842 303 827 l 180 1118 q 195 1135 180 1135 l 323 1140 q 345 1121 340 1139 z "},"a":{"ha":715,"x_min":89,"x_max":673,"o":"m 673 802 l 585 20 q 568 2 583 3 l 431 -3 q 416 10 416 -1 l 429 102 q 361 21 398 50 q 278 -7 324 -7 q 199 8 232 -7 q 146 51 167 24 q 113 113 125 77 q 89 291 89 178 q 104 483 89 404 q 131 603 119 562 q 162 687 142 644 q 205 760 181 730 q 346 826 261 826 q 442 796 409 826 q 498 707 475 766 l 506 799 q 523 815 507 814 l 656 820 q 673 802 673 819 m 260 311 q 347 149 260 149 q 408 183 385 149 q 449 323 432 218 q 467 477 467 429 q 466 538 467 525 q 463 572 465 551 q 456 608 461 593 q 441 637 450 623 q 385 667 424 667 q 322 632 345 667 q 286 538 299 597 q 260 311 260 414 z "},"b":{"ha":719,"x_min":72,"x_max":661,"o":"m 366 1129 l 309 696 q 381 792 342 759 q 469 826 420 826 q 550 810 517 826 q 603 768 583 794 q 637 705 624 742 q 661 527 661 640 q 645 336 661 414 q 618 216 630 257 q 588 132 607 175 q 544 59 568 88 q 413 -7 488 -7 q 305 24 338 -7 q 248 119 272 56 l 241 20 q 224 2 239 3 l 87 -3 q 72 10 72 -1 l 198 1124 q 202 1138 199 1134 q 215 1143 205 1142 l 348 1147 q 366 1129 366 1145 m 490 508 q 403 670 490 670 q 341 635 365 670 q 300 495 317 600 q 283 342 283 390 q 283 281 283 294 q 286 247 284 268 q 294 211 288 225 q 308 182 299 196 q 365 152 326 152 q 427 187 404 152 q 463 280 450 222 q 490 508 490 405 z "},"c":{"ha":601,"x_min":89,"x_max":573,"o":"m 558 805 q 573 779 573 800 l 557 656 q 539 643 556 643 q 506 650 522 643 q 397 679 440 679 q 328 643 353 679 q 286 540 302 607 q 257 311 257 414 q 343 144 257 144 q 444 160 406 144 q 494 176 483 176 q 518 155 518 176 l 504 36 q 499 21 503 24 q 489 16 495 19 q 335 -7 407 -7 q 221 11 262 -7 q 155 58 179 29 q 115 127 130 87 q 89 299 89 197 q 102 477 89 401 q 130 600 115 553 q 169 691 144 648 q 226 764 193 735 q 414 826 297 826 q 558 805 493 826 z "},"d":{"ha":709,"x_min":89,"x_max":705,"o":"m 422 92 q 273 -7 361 -7 q 113 113 156 -7 q 89 291 89 178 q 104 483 89 404 q 131 603 119 562 q 162 687 142 644 q 205 760 181 730 q 346 826 261 826 q 441 796 408 826 q 498 707 475 766 l 536 1124 q 555 1143 538 1142 l 688 1147 q 705 1129 705 1145 l 579 20 q 562 2 577 3 l 425 -3 q 411 10 411 -1 l 422 92 m 260 311 q 347 149 260 149 q 408 183 385 149 q 449 323 432 218 q 467 477 467 429 q 466 538 467 525 q 463 572 465 551 q 456 608 461 593 q 441 637 450 623 q 385 667 424 667 q 322 632 345 667 q 286 538 299 597 q 260 311 260 414 z "},"e":{"ha":675,"x_min":89,"x_max":617,"o":"m 116 127 q 108 147 116 127 q 95 207 100 168 q 89 316 89 247 q 104 487 89 385 q 412 826 153 826 q 564 758 511 826 q 617 580 617 689 q 604 368 617 471 q 583 349 602 349 l 248 337 q 247 310 247 327 q 274 189 247 233 q 355 144 300 144 q 455 160 409 144 q 510 176 502 176 q 524 170 518 176 q 530 155 530 165 l 517 36 q 513 23 516 26 q 501 16 510 20 q 343 -7 419 -7 q 225 11 267 -7 q 158 58 183 29 q 116 127 132 87 m 264 507 l 258 464 l 435 473 q 450 477 446 473 q 460 533 460 487 q 457 597 460 578 q 446 635 454 616 q 393 679 431 679 q 334 666 355 679 q 264 507 286 636 z "},"f":{"ha":470,"x_min":76,"x_max":589,"o":"m 333 840 l 331 820 l 481 825 q 498 808 498 825 l 479 700 q 462 683 476 684 l 317 677 l 250 20 q 245 7 249 11 q 233 2 242 3 l 96 -3 q 81 10 81 -1 l 155 676 l 93 673 q 76 690 76 673 l 94 799 q 112 815 96 814 l 170 817 l 180 900 q 270 1112 197 1053 q 442 1161 332 1161 q 569 1145 515 1161 q 589 1124 589 1138 l 572 1005 q 561 989 569 989 q 519 999 553 989 q 438 1008 486 1008 q 366 969 389 1008 q 333 840 342 930 z "},"g":{"ha":711,"x_min":89,"x_max":673,"o":"m 422 -24 l 439 121 q 367 26 406 59 q 280 -7 329 -7 q 199 8 232 -7 q 146 51 167 24 q 113 113 125 77 q 89 291 89 178 q 104 483 89 404 q 131 603 119 562 q 162 687 142 644 q 205 760 181 730 q 346 826 261 826 q 441 796 408 826 q 498 707 475 766 l 505 798 q 522 815 506 814 l 659 820 q 673 806 673 818 l 581 -17 q 468 -277 562 -199 q 269 -338 394 -338 q 109 -320 190 -338 q 93 -314 97 -318 q 89 -300 89 -311 l 102 -178 q 117 -159 104 -159 q 167 -173 126 -159 q 258 -186 208 -186 q 336 -177 308 -186 q 381 -146 364 -168 q 422 -24 411 -110 m 260 311 q 347 149 260 149 q 408 183 385 149 q 449 323 432 218 q 467 477 467 429 q 466 538 467 525 q 463 572 465 551 q 456 608 461 593 q 441 637 450 623 q 385 667 424 667 q 322 632 345 667 q 286 538 299 597 q 260 311 260 414 z "},"h":{"ha":724,"x_min":72,"x_max":661,"o":"m 366 1129 l 323 749 q 509 826 414 826 q 653 701 623 826 q 661 637 661 667 q 659 589 661 607 l 594 20 q 577 2 591 3 l 440 -3 q 425 10 425 -1 l 487 547 q 489 579 489 565 q 463 655 489 635 q 396 675 437 675 q 313 658 356 675 l 241 20 q 224 2 238 3 l 87 -3 q 72 10 72 -1 l 198 1124 q 202 1138 199 1134 q 215 1143 205 1142 l 348 1147 q 366 1129 366 1145 z "},"i":{"ha":370,"x_min":72,"x_max":365,"o":"m 254 894 q 233 894 254 894 q 186 920 212 894 q 161 988 161 947 q 195 1063 161 1030 q 271 1096 229 1096 q 339 1069 313 1096 q 365 1001 365 1043 q 330 927 365 960 q 254 894 296 894 m 329 802 l 241 20 q 236 7 239 11 q 223 2 233 3 l 87 -3 q 72 10 72 -1 l 161 799 q 178 815 164 814 l 311 820 q 329 802 329 819 z "},"j":{"ha":369,"x_min":-98,"x_max":363,"o":"m 66 -62 l 160 799 q 177 815 163 814 l 309 820 q 328 802 328 819 l 234 -26 q 140 -263 216 -188 q -82 -338 65 -338 q -98 -322 -98 -338 l -83 -190 q -69 -174 -81 -174 q 26 -146 -7 -174 q 66 -62 58 -119 m 252 894 q 231 894 252 894 q 185 920 210 894 q 160 988 160 947 q 194 1063 160 1030 q 269 1096 227 1096 q 337 1069 311 1096 q 363 1001 363 1043 q 329 927 363 960 q 252 894 294 894 z "},"k":{"ha":665,"x_min":73,"x_max":649,"o":"m 600 14 q 582 2 600 2 l 437 -3 q 422 10 427 -2 l 284 400 l 241 20 q 237 7 240 11 q 224 2 233 3 l 87 -3 q 73 10 73 -1 l 198 1124 q 203 1138 199 1134 q 216 1143 206 1142 l 349 1147 q 366 1129 366 1145 l 289 443 l 469 798 q 492 815 477 814 l 632 820 q 649 804 649 818 q 646 791 649 797 l 444 439 l 598 22 q 600 14 600 18 z "},"l":{"ha":370,"x_min":72,"x_max":366,"o":"m 366 1129 l 241 21 q 236 7 239 12 q 223 3 233 3 l 87 -3 q 72 10 72 -1 l 197 1124 q 202 1138 199 1134 q 215 1143 205 1142 l 348 1147 q 366 1129 366 1145 z "},"m":{"ha":1063,"x_min":72,"x_max":1000,"o":"m 329 802 l 321 739 q 513 826 421 826 q 642 737 605 826 q 839 826 743 826 q 991 701 957 826 q 1000 637 1000 667 q 998 589 1000 607 l 933 20 q 916 2 930 3 l 779 -3 q 764 10 764 -1 l 826 547 q 829 579 829 570 q 802 655 829 635 q 737 675 776 675 q 659 661 698 675 q 661 626 661 644 q 659 589 661 607 l 594 20 q 577 2 591 3 l 440 -3 q 425 10 425 -1 l 487 547 q 489 579 489 565 q 463 655 489 635 q 396 675 437 675 q 313 658 356 675 l 241 21 q 224 3 238 4 l 87 -3 q 72 10 72 -1 l 161 799 q 178 815 164 814 l 311 820 q 329 802 329 819 z "},"n":{"ha":724,"x_min":72,"x_max":661,"o":"m 330 802 l 322 740 q 509 826 420 826 q 653 701 623 826 q 661 637 661 667 q 659 589 661 607 l 594 20 q 577 2 591 3 l 440 -3 q 425 10 425 -1 l 487 547 q 489 579 489 565 q 463 655 489 635 q 397 675 437 675 q 313 658 357 675 l 241 20 q 224 2 238 3 l 87 -3 q 72 10 72 -1 l 161 799 q 178 815 164 814 l 311 820 q 330 802 330 819 z "},"o":{"ha":694,"x_min":89,"x_max":635,"o":"m 321 -7 q 261 -7 321 -7 q 145 65 201 -7 q 89 275 89 137 q 103 444 89 340 q 130 594 117 547 q 164 687 142 642 q 217 761 186 732 q 399 826 284 826 q 610 707 562 826 q 635 552 635 643 q 622 365 635 462 q 595 221 608 268 q 561 131 583 175 q 509 57 539 86 q 321 -7 441 -7 m 441 290 q 460 424 448 326 q 472 570 472 523 q 389 686 472 686 q 324 648 349 686 q 283 524 298 611 q 252 238 252 348 q 334 128 252 128 q 400 166 374 128 q 441 290 426 203 z "},"p":{"ha":715,"x_min":35,"x_max":657,"o":"m 35 -313 l 161 798 q 178 815 163 814 l 315 820 q 330 806 330 819 l 316 715 q 384 798 347 769 q 468 826 421 826 q 547 810 514 826 q 600 768 579 794 q 633 705 621 742 q 657 527 657 640 q 642 336 657 414 q 615 216 627 257 q 584 132 604 175 q 541 59 565 88 q 410 -7 485 -7 q 301 24 334 -7 q 244 121 268 56 l 204 -309 q 186 -326 203 -325 l 54 -330 q 35 -313 35 -330 m 487 508 q 400 669 487 669 q 337 635 361 669 q 297 493 314 600 q 279 339 279 386 q 280 280 279 293 q 283 246 281 268 q 290 210 285 224 q 304 182 296 196 q 361 152 322 152 q 424 186 401 152 q 459 281 446 221 q 487 508 487 408 z "},"q":{"ha":714,"x_min":89,"x_max":673,"o":"m 380 -313 l 435 114 q 365 24 404 56 q 279 -7 327 -7 q 199 8 232 -7 q 146 51 167 24 q 113 113 125 77 q 89 291 89 178 q 104 483 89 404 q 131 603 119 562 q 162 687 142 644 q 205 760 181 730 q 346 826 261 826 q 441 796 408 826 q 498 707 475 766 l 505 798 q 522 814 506 814 l 659 819 q 673 805 673 817 l 549 -309 q 530 -326 546 -324 l 397 -330 q 380 -313 380 -329 m 260 311 q 347 149 260 149 q 408 183 385 149 q 449 323 432 218 q 467 477 467 429 q 466 538 467 525 q 463 572 465 551 q 456 608 461 593 q 441 637 450 623 q 385 667 424 667 q 322 632 345 667 q 286 538 299 597 q 260 311 260 414 z "},"r":{"ha":538,"x_min":72,"x_max":564,"o":"m 528 647 l 456 654 q 308 619 368 654 l 241 21 q 224 3 238 4 l 87 -3 q 72 10 72 -1 l 161 799 q 178 815 164 814 l 311 820 q 329 802 329 819 l 321 732 q 405 801 364 777 q 487 826 446 826 q 549 823 528 826 q 564 804 564 820 q 548 665 564 757 q 528 647 545 647 z "},"s":{"ha":507,"x_min":58,"x_max":470,"o":"m 443 662 l 366 665 q 315 650 334 665 q 296 607 296 635 q 307 545 296 579 q 354 439 320 500 q 400 354 387 379 q 439 205 439 276 q 379 48 439 103 q 197 -7 319 -7 q 101 -1 137 -7 q 61 9 65 5 q 58 21 58 13 l 75 146 q 87 163 77 163 q 127 156 98 163 q 180 149 157 149 q 262 214 262 149 q 242 302 262 261 q 199 386 222 342 q 163 455 176 429 q 136 528 150 481 q 122 614 122 574 q 179 768 122 709 q 344 826 235 826 q 453 819 414 826 q 470 802 470 817 l 455 681 q 443 662 455 662 z "},"t":{"ha":505,"x_min":79,"x_max":514,"o":"m 179 817 q 199 971 195 966 q 214 977 204 977 l 343 982 q 361 965 361 981 q 340 821 349 890 l 498 826 q 514 808 514 825 l 495 701 q 478 684 492 684 l 323 677 q 277 220 277 262 q 345 140 277 140 q 412 151 379 140 q 452 162 444 162 q 467 144 467 162 l 452 26 q 447 11 451 16 q 414 -1 444 6 q 313 -7 385 -7 q 159 41 209 -7 q 109 186 109 90 q 162 675 109 282 l 96 673 q 79 690 79 673 l 97 799 q 115 815 99 814 l 179 817 z "},"u":{"ha":724,"x_min":94,"x_max":683,"o":"m 427 14 l 432 66 q 246 -7 350 -7 q 131 50 168 -7 q 94 192 94 106 q 97 231 94 206 l 161 798 q 178 815 163 814 l 315 821 q 330 806 330 819 l 269 271 q 267 239 267 254 q 289 163 267 182 q 355 144 311 144 q 443 161 399 144 l 515 798 q 532 815 517 814 l 669 820 q 683 806 683 819 l 595 21 q 576 3 593 5 l 444 -3 q 427 14 427 -2 z "},"v":{"ha":629,"x_min":96,"x_max":649,"o":"m 316 222 l 471 799 q 490 815 475 814 l 632 820 q 649 802 649 819 l 373 20 q 355 2 367 3 l 216 -3 q 201 10 203 -2 l 96 799 q 113 815 98 814 l 246 820 q 263 802 262 819 l 316 222 z "},"w":{"ha":884,"x_min":102,"x_max":905,"o":"m 604 208 l 745 799 q 762 815 749 814 l 887 820 q 905 802 905 819 l 661 20 q 644 2 656 3 l 507 -3 q 492 10 496 -2 l 465 481 l 340 20 q 323 2 336 3 l 186 -3 q 172 10 175 -2 l 102 799 q 119 815 104 814 l 245 820 q 262 802 261 819 l 285 213 l 422 799 q 441 815 425 813 l 552 819 q 570 802 569 819 l 604 208 z "},"x":{"ha":641,"x_min":16,"x_max":633,"o":"m 33 -3 q 16 14 16 -1 l 241 448 l 121 799 q 138 815 121 814 l 272 820 q 290 802 284 819 l 362 566 l 466 799 q 484 815 473 814 l 616 820 q 633 802 633 819 l 433 404 l 560 20 q 543 2 558 3 l 410 -3 q 392 14 397 -2 l 309 286 l 183 20 q 165 2 176 2 l 33 -3 z "},"y":{"ha":637,"x_min":96,"x_max":658,"o":"m 658 802 l 267 -308 q 247 -326 261 -325 l 111 -330 q 96 -317 96 -330 l 212 12 l 106 799 q 123 815 106 814 l 257 820 q 274 802 273 819 l 326 232 l 490 799 q 508 815 494 814 l 641 820 q 658 802 658 819 z "},"z":{"ha":585,"x_min":25,"x_max":581,"o":"m 40 -3 q 25 12 25 -1 q 26 18 25 14 l 344 662 l 132 654 q 115 670 115 654 l 129 799 q 147 815 131 814 l 562 829 q 581 810 581 828 l 274 167 l 493 178 q 510 160 510 177 l 494 31 q 490 18 493 22 q 477 13 486 14 l 40 -3 z "},"{":{"ha":517,"x_min":113,"x_max":623,"o":"m 142 507 q 214 533 184 507 q 250 604 244 558 q 313 997 278 859 q 604 1182 359 1182 q 619 1178 614 1182 q 623 1162 623 1174 l 609 1043 q 595 1026 606 1026 q 457 924 475 1026 q 408 592 425 743 q 254 449 393 457 q 344 393 319 431 q 368 292 368 355 q 358 142 368 229 q 349 -10 349 55 q 435 -130 349 -130 q 450 -146 450 -130 l 433 -272 q 427 -287 431 -284 q 416 -290 422 -290 q 243 -223 302 -290 q 184 -44 184 -157 q 197 113 184 4 q 210 270 210 222 q 130 374 210 374 q 113 391 113 374 l 123 490 q 142 507 125 505 z "},"|":{"ha":365,"x_min":55,"x_max":338,"o":"m 338 1128 l 179 -296 q 161 -314 177 -313 l 70 -317 q 55 -304 55 -317 l 215 1124 q 220 1138 216 1134 q 233 1143 223 1142 l 320 1146 q 338 1128 338 1145 z "},"}":{"ha":517,"x_min":-69,"x_max":441,"o":"m 412 385 q 340 360 370 385 q 304 288 310 334 q 241 -104 276 34 q -50 -290 195 -290 q -65 -286 -60 -290 q -69 -269 -69 -281 l -55 -151 q -41 -134 -52 -134 q 97 -32 79 -134 q 146 300 130 149 q 300 444 161 435 q 210 499 235 461 q 186 601 186 537 q 196 751 186 664 q 205 903 205 838 q 119 1022 205 1022 q 104 1039 104 1022 l 121 1164 q 127 1179 123 1177 q 138 1182 132 1182 q 311 1116 252 1182 q 370 937 370 1050 q 357 779 370 888 q 345 623 345 670 q 425 519 345 519 q 441 502 441 519 l 431 402 q 412 385 429 388 z "},"~":{"ha":699,"x_min":86,"x_max":671,"o":"m 172 646 q 261 670 215 670 q 395 661 308 670 q 516 652 483 652 q 593 670 549 652 q 644 688 637 688 q 661 676 659 688 l 671 597 q 656 568 670 581 q 496 492 574 492 q 367 502 449 492 q 245 511 284 511 q 163 493 207 511 q 109 475 120 475 q 96 486 97 475 l 86 566 q 172 646 90 600 z "},"¡":{"ha":397,"x_min":55,"x_max":363,"o":"m 55 -254 l 156 505 q 173 522 158 522 l 292 527 q 307 513 307 526 l 234 -250 q 216 -267 233 -264 l 72 -271 q 55 -254 55 -271 m 264 825 q 286 825 264 825 q 335 797 308 825 q 363 725 363 769 q 327 647 363 682 q 247 612 291 612 q 175 640 202 612 q 148 712 148 668 q 184 791 148 757 q 264 825 220 825 z "},"¢":{"ha":654,"x_min":96,"x_max":580,"o":"m 522 929 l 500 736 q 496 722 500 726 q 484 718 492 719 l 379 706 q 361 723 363 706 l 384 924 q 401 941 385 940 l 505 945 q 522 929 522 945 m 454 117 l 425 -125 q 408 -143 424 -143 l 304 -146 q 287 -130 288 -146 l 302 10 q 319 27 303 24 l 454 117 m 565 805 q 580 779 580 800 l 564 656 q 546 643 563 643 q 513 650 528 643 q 404 679 447 679 q 334 643 360 679 q 293 540 309 607 q 264 311 264 414 q 350 144 264 144 q 451 160 412 144 q 501 176 490 176 q 525 155 525 176 l 511 36 q 506 22 509 24 q 496 16 502 19 q 341 -7 414 -7 q 228 11 269 -7 q 161 58 186 29 q 122 127 137 87 q 96 299 96 197 q 109 477 96 401 q 137 600 122 553 q 176 691 151 648 q 233 764 200 735 q 421 826 304 826 q 565 805 500 826 z "},"£":{"ha":654,"x_min":56,"x_max":637,"o":"m 114 426 q 97 444 97 427 l 113 581 q 131 598 115 598 l 180 600 l 193 720 q 245 937 212 871 q 486 1067 313 1067 q 590 1062 551 1067 q 633 1054 629 1057 q 637 1040 637 1051 l 621 907 q 609 890 619 890 q 561 896 599 890 q 488 901 523 901 q 429 890 453 901 q 366 737 380 865 l 351 606 l 496 610 q 511 593 511 610 l 494 456 q 477 438 492 439 l 333 433 l 305 176 l 566 185 q 581 168 581 184 l 566 31 q 549 13 564 14 l 73 -3 q 56 14 56 -2 l 71 151 q 76 164 73 160 q 89 168 79 168 l 132 170 l 161 428 l 114 426 z "},"¤":{"ha":654,"x_min":2,"x_max":696,"o":"m 84 456 q 151 690 84 595 l 77 800 q 71 813 71 808 q 76 823 71 818 l 163 882 q 179 888 174 888 q 188 884 185 888 l 259 779 q 375 799 307 799 q 499 759 442 799 l 590 859 q 604 869 597 869 q 614 866 610 869 l 687 798 q 696 782 696 789 q 694 774 696 776 l 581 650 l 579 652 q 602 515 602 593 q 552 307 602 395 l 645 171 q 651 156 651 162 q 647 146 651 149 l 560 86 q 545 81 551 81 q 536 84 538 81 l 452 205 q 321 174 395 174 q 193 209 248 174 l 109 116 q 96 107 100 107 q 85 110 92 107 l 11 178 q 2 191 2 186 q 5 201 2 196 l 109 315 q 84 456 84 374 m 227 470 q 338 311 227 311 q 427 365 395 311 q 458 500 458 419 q 348 661 458 661 q 259 607 290 661 q 227 470 227 552 z "},"¥":{"ha":654,"x_min":81,"x_max":688,"o":"m 297 1044 l 374 656 l 513 1036 q 530 1052 519 1051 l 670 1057 q 683 1051 678 1056 q 688 1041 688 1046 l 435 475 l 383 19 q 366 2 381 3 l 226 -3 q 211 10 211 -3 l 262 460 l 123 1041 q 142 1052 123 1050 l 279 1057 q 297 1044 294 1057 m 137 539 l 581 555 q 597 538 597 555 l 583 416 q 566 399 581 400 l 122 382 q 106 400 106 383 l 119 522 q 137 539 121 539 m 112 316 l 556 332 q 572 315 572 332 l 557 193 q 541 176 555 177 l 97 159 q 81 177 81 160 l 94 298 q 112 316 96 316 z "},"¦":{"ha":365,"x_min":55,"x_max":338,"o":"m 338 1128 l 271 539 q 254 522 269 524 l 163 518 q 148 532 148 520 l 215 1124 q 220 1138 216 1134 q 233 1143 223 1142 l 320 1146 q 338 1128 338 1145 m 245 292 l 179 -296 q 161 -314 177 -313 l 70 -317 q 55 -304 55 -317 l 121 290 q 140 307 124 305 l 227 311 q 245 292 245 309 z "},"§":{"ha":718,"x_min":91,"x_max":632,"o":"m 593 913 l 523 916 q 483 907 497 916 q 469 872 469 897 q 543 629 469 803 q 632 359 632 421 q 578 186 632 248 q 434 111 524 124 q 465 -5 465 47 q 398 -188 465 -122 q 210 -254 331 -254 q 91 -224 91 -254 l 107 -92 q 118 -75 109 -75 q 161 -82 136 -75 q 215 -90 187 -90 q 260 -66 243 -90 q 278 -10 278 -42 q 264 58 278 22 q 204 172 247 104 q 144 270 161 240 q 111 346 127 300 q 94 432 94 393 q 162 609 94 543 q 340 676 231 675 q 285 889 285 802 q 344 1034 285 977 q 518 1091 403 1091 q 594 1086 571 1091 q 618 1067 618 1081 l 606 932 q 593 913 605 913 m 335 531 q 323 531 335 531 q 287 510 311 531 q 263 457 263 490 q 278 386 263 424 q 355 245 298 334 q 380 243 367 243 q 440 271 414 243 q 465 352 465 298 q 410 528 465 406 q 335 531 359 531 z "},"¨":{"ha":595,"x_min":72,"x_max":522,"o":"m 154 892 q 136 892 154 892 q 95 916 117 892 q 72 976 72 939 q 102 1041 72 1012 q 169 1070 132 1070 q 228 1047 205 1070 q 251 987 251 1023 q 221 921 251 950 q 154 892 191 892 m 424 892 q 406 892 424 892 q 365 916 388 892 q 342 977 342 940 q 372 1042 342 1013 q 438 1070 401 1070 q 499 1047 475 1070 q 522 987 522 1023 q 491 921 522 950 q 424 892 460 892 z "},"©":{"ha":1312,"x_min":143,"x_max":1236,"o":"m 675 314 l 783 326 q 793 314 793 326 l 782 217 q 769 205 781 208 q 647 191 697 191 q 526 237 568 191 q 483 358 483 283 q 517 709 483 516 q 606 898 541 848 q 759 941 662 941 q 846 930 838 941 q 848 921 848 927 l 836 826 q 826 814 836 814 l 749 822 q 683 799 706 822 q 648 709 660 775 q 626 541 637 642 q 615 376 615 439 q 675 314 615 314 m 380 58 q 323 92 380 58 q 204 244 266 126 q 143 524 143 361 q 217 829 143 686 q 427 1054 291 972 q 736 1137 563 1137 q 941 1096 846 1137 q 1099 986 1035 1056 q 1199 821 1163 917 q 1236 616 1236 725 q 1162 296 1236 438 q 952 72 1088 153 q 655 -10 816 -10 q 380 58 494 -10 m 489 945 q 438 913 489 945 q 333 770 387 881 q 279 533 279 660 q 323 315 279 407 q 455 170 368 224 q 665 116 541 116 q 890 180 788 116 q 1046 354 992 244 q 1101 590 1101 465 q 1056 808 1101 716 q 925 955 1011 900 q 715 1009 838 1009 q 489 945 591 1009 z "},"ª":{"ha":612,"x_min":131,"x_max":578,"o":"m 382 628 q 272 546 340 546 q 167 601 203 546 q 131 739 131 656 q 148 904 131 822 q 325 1096 186 1096 q 385 1073 362 1096 q 425 1005 408 1049 l 430 1069 q 447 1085 431 1084 l 565 1089 q 578 1072 578 1089 l 524 585 q 507 567 522 568 l 390 562 q 375 576 375 564 l 382 628 m 288 884 q 275 781 275 822 q 278 725 275 741 q 286 693 280 710 q 330 656 300 656 q 374 677 359 656 q 400 765 389 699 q 411 867 411 831 q 410 916 411 903 q 405 947 409 928 q 364 983 397 983 q 288 884 306 983 z "},"«":{"ha":821,"x_min":125,"x_max":824,"o":"m 503 671 l 309 401 l 420 124 q 403 106 420 107 l 291 102 q 269 116 276 102 l 127 380 q 125 390 125 385 q 130 400 125 395 l 338 667 q 367 684 351 684 l 486 688 q 503 671 503 688 m 824 671 l 630 401 l 741 124 q 724 106 741 107 l 612 102 q 589 116 597 102 l 448 380 q 446 390 446 385 q 450 400 446 395 l 659 667 q 688 684 671 684 l 807 688 q 824 671 824 688 z "},"¬":{"ha":654,"x_min":105,"x_max":596,"o":"m 136 587 l 579 603 q 596 586 596 602 l 567 322 q 549 305 565 306 l 425 301 q 410 315 410 303 l 425 442 l 121 430 q 105 448 105 431 l 119 569 q 124 583 120 581 q 136 587 129 586 z "},"­":{"ha":608,"x_min":81,"x_max":572,"o":"m 113 587 l 557 603 q 572 586 572 602 l 558 464 q 541 447 556 448 l 98 430 q 81 448 81 431 l 95 569 q 113 587 97 587 z "},"®":{"ha":1312,"x_min":143,"x_max":1236,"o":"m 380 58 q 323 92 380 58 q 204 244 266 126 q 143 524 143 361 q 217 829 143 686 q 427 1054 291 972 q 736 1137 563 1137 q 941 1096 846 1137 q 1099 986 1035 1056 q 1199 821 1163 917 q 1236 616 1236 725 q 1162 296 1236 438 q 952 72 1088 153 q 655 -10 816 -10 q 380 58 494 -10 m 489 945 q 438 913 489 945 q 333 770 387 881 q 279 533 279 660 q 323 315 279 407 q 455 170 368 224 q 665 116 541 116 q 890 180 788 116 q 1046 354 992 244 q 1101 590 1101 465 q 1056 808 1101 716 q 925 955 1011 900 q 715 1009 838 1009 q 489 945 591 1009 m 890 754 q 752 530 890 583 l 885 222 q 872 210 885 210 l 751 205 q 741 214 743 205 l 636 479 l 606 222 q 594 210 605 210 l 480 205 q 471 214 471 206 l 551 911 q 554 922 551 920 q 568 928 557 924 q 721 943 669 943 q 890 754 890 943 m 675 814 l 651 606 q 735 646 713 612 q 758 733 758 680 q 746 801 758 787 q 711 816 734 816 q 675 814 688 816 z "},"¯":{"ha":595,"x_min":64,"x_max":531,"o":"m 92 1069 l 515 1084 q 531 1067 531 1083 l 520 975 q 502 958 518 959 l 80 943 q 64 960 64 944 l 75 1051 q 92 1069 77 1069 z "},"°":{"ha":570,"x_min":125,"x_max":534,"o":"m 318 623 q 270 623 318 623 q 173 681 221 623 q 125 846 125 739 q 184 1026 125 953 q 340 1100 243 1100 q 486 1042 437 1100 q 534 876 534 983 q 475 695 534 768 q 318 623 416 623 m 334 988 q 311 988 334 988 q 264 950 288 988 q 241 853 241 912 q 259 765 241 794 q 324 735 277 735 q 394 773 370 735 q 417 870 417 812 q 398 958 417 928 q 334 988 380 988 z "},"±":{"ha":654,"x_min":71,"x_max":609,"o":"m 465 809 l 448 661 l 592 669 q 609 652 609 668 l 593 530 q 577 513 591 513 l 431 505 l 412 336 q 395 319 410 319 l 271 315 q 256 329 256 316 l 275 496 l 134 489 q 117 507 117 490 l 131 628 q 149 646 133 646 l 292 653 l 309 805 q 328 822 312 821 l 447 826 q 465 809 465 825 m 102 238 l 546 254 q 562 237 562 254 l 547 115 q 530 98 545 99 l 87 81 q 71 99 71 82 l 84 220 q 102 238 86 238 z "},"²":{"ha":468,"x_min":89,"x_max":471,"o":"m 419 582 l 106 571 q 89 587 89 572 q 97 660 89 616 q 139 744 105 703 q 225 833 174 785 q 302 910 277 882 q 327 957 327 938 q 310 987 327 976 q 266 998 292 998 q 199 990 240 998 q 143 981 159 981 q 127 1000 127 981 l 138 1097 q 143 1109 140 1105 q 184 1122 146 1112 q 299 1133 223 1133 q 422 1094 374 1133 q 471 975 471 1055 q 447 891 471 924 q 364 797 414 846 q 282 709 313 748 l 431 715 q 448 695 448 714 l 437 599 q 419 582 436 583 z "},"³":{"ha":468,"x_min":94,"x_max":471,"o":"m 253 689 q 321 747 321 689 q 301 790 321 779 q 241 801 281 801 l 208 801 q 193 819 193 801 l 201 869 q 218 886 203 884 q 304 910 281 895 q 327 951 327 926 q 266 998 327 998 q 199 989 241 998 q 142 980 158 980 q 127 999 127 980 l 138 1095 q 142 1107 139 1104 q 155 1114 146 1110 q 298 1133 217 1133 q 471 1008 471 1133 q 331 853 471 883 q 431 822 398 853 q 465 726 465 791 q 406 616 465 661 q 250 570 348 570 q 115 587 174 570 q 106 589 109 589 q 101 591 103 590 q 98 593 99 592 q 96 595 97 594 q 94 606 94 599 l 104 690 q 104 698 104 691 q 118 707 106 707 q 172 698 130 707 q 253 689 214 689 z "},"´":{"ha":595,"x_min":168,"x_max":427,"o":"m 427 1129 l 297 850 q 273 835 290 836 l 182 831 q 168 845 168 833 l 259 1124 q 281 1143 265 1142 l 410 1147 q 427 1129 427 1146 z "},"µ":{"ha":769,"x_min":42,"x_max":731,"o":"m 336 802 l 274 239 q 300 164 274 184 q 368 144 327 144 q 452 161 408 144 l 523 798 q 541 815 525 814 l 677 820 q 692 806 692 819 l 621 180 q 637 165 621 165 l 710 170 q 731 151 731 170 l 717 24 q 701 5 715 6 q 484 -3 555 -3 q 439 44 440 -3 q 316 -7 386 -7 q 248 11 275 -7 l 212 -308 q 194 -326 209 -324 l 57 -330 q 42 -317 42 -329 l 169 799 q 186 815 172 814 l 318 820 q 336 802 336 819 z "},"¶":{"ha":793,"x_min":162,"x_max":775,"o":"m 441 77 l 475 395 q 403 394 454 394 q 226 456 290 394 q 162 616 162 519 q 239 956 162 825 q 350 1064 281 1031 q 534 1096 418 1096 q 758 1068 649 1096 q 775 1050 775 1063 l 762 943 q 745 924 760 926 l 723 923 q 706 906 708 922 l 613 93 q 498 -157 593 -87 q 247 -222 408 -222 q 230 -206 230 -222 l 246 -70 q 264 -54 250 -54 q 420 6 386 -54 q 441 77 436 33 m 470 532 l 491 532 l 535 933 q 447 924 474 933 q 397 885 420 914 q 359 788 374 857 q 344 663 344 720 q 377 569 344 606 q 470 532 411 532 z "},"·":{"ha":397,"x_min":117,"x_max":332,"o":"m 215 377 q 193 377 215 377 q 144 405 171 377 q 117 477 117 433 q 153 555 117 521 q 233 590 189 590 q 304 562 277 590 q 332 490 332 534 q 296 412 332 446 q 215 377 260 377 z "},"¸":{"ha":595,"x_min":140,"x_max":454,"o":"m 307 -132 l 229 -140 q 194 -123 210 -140 q 179 -87 179 -107 q 218 48 179 -68 l 279 41 l 254 -59 q 351 -45 310 -45 q 423 -75 392 -45 q 454 -175 454 -104 q 408 -287 454 -245 q 282 -328 362 -328 q 210 -320 248 -328 q 156 -306 172 -313 q 140 -286 140 -298 q 147 -222 140 -273 q 159 -212 149 -212 q 203 -223 169 -212 q 268 -235 238 -235 q 347 -181 347 -235 q 336 -144 347 -156 q 307 -132 324 -132 z "},"¹":{"ha":468,"x_min":106,"x_max":441,"o":"m 216 1124 l 387 1130 q 399 1112 399 1130 l 355 710 l 425 713 q 441 695 441 712 l 430 599 q 413 581 428 582 l 123 571 q 106 589 106 573 l 117 686 q 122 699 119 695 q 135 703 125 703 l 207 706 l 237 982 l 153 978 q 136 996 136 979 q 163 1055 136 1004 q 192 1107 191 1105 q 216 1124 201 1123 z "},"º":{"ha":599,"x_min":131,"x_max":556,"o":"m 412 886 q 361 985 412 985 q 321 969 337 985 q 287 876 298 945 q 276 757 276 807 q 330 658 276 658 q 376 682 362 658 q 400 765 389 705 q 412 886 412 824 m 329 546 q 279 546 329 546 q 180 597 229 546 q 131 733 131 648 q 143 879 131 817 q 170 972 155 941 q 209 1034 184 1004 q 359 1096 261 1096 q 507 1043 457 1096 q 556 907 556 991 q 543 759 556 824 q 516 661 530 693 q 477 601 502 628 q 329 546 428 546 z "},"»":{"ha":821,"x_min":14,"x_max":712,"o":"m 14 123 l 208 393 l 97 669 q 114 688 97 686 l 226 692 q 248 677 241 691 l 389 413 q 391 404 391 408 q 387 393 391 399 l 179 127 q 150 109 166 110 l 31 105 q 14 123 14 106 m 334 123 l 528 393 l 418 669 q 435 688 418 686 l 547 692 q 569 677 562 691 l 710 413 q 712 403 712 408 q 708 393 712 399 l 500 127 q 471 109 487 110 l 351 105 q 334 123 334 106 z "},"¼":{"ha":985,"x_min":58,"x_max":954,"o":"m 890 1036 l 280 -3 q 260 -18 270 -18 l 178 26 q 164 42 164 34 q 168 58 164 51 l 779 1096 q 798 1112 788 1111 l 881 1067 q 895 1051 895 1059 q 890 1036 895 1043 m 912 529 l 877 225 l 937 227 q 954 210 954 227 l 943 121 q 926 103 941 104 l 863 101 l 853 14 q 836 -3 851 -3 l 720 -7 q 705 6 705 -7 l 729 96 l 541 90 q 522 100 522 90 q 527 119 522 111 l 764 525 q 795 543 774 542 l 899 547 q 912 529 912 546 m 683 218 l 755 221 l 774 380 l 683 218 m 168 1086 l 338 1092 q 351 1074 351 1092 l 307 672 l 377 675 q 393 657 393 674 l 382 561 q 365 543 380 544 l 75 533 q 58 551 58 535 l 69 648 q 74 661 71 657 q 87 665 77 665 l 159 668 l 189 944 l 104 940 q 87 958 87 941 q 115 1017 87 966 q 144 1069 142 1067 q 168 1086 153 1085 z "},"½":{"ha":985,"x_min":58,"x_max":969,"o":"m 890 1036 l 280 -3 q 260 -18 270 -18 l 178 26 q 164 42 164 34 q 168 58 164 51 l 779 1096 q 798 1112 788 1111 l 881 1067 q 895 1051 895 1059 q 890 1036 895 1043 m 168 1086 l 338 1092 q 351 1074 351 1092 l 307 672 l 377 675 q 393 657 393 674 l 382 561 q 365 543 380 544 l 75 533 q 58 551 58 535 l 69 648 q 74 661 71 657 q 87 665 77 665 l 159 668 l 189 944 l 104 940 q 87 958 87 941 q 115 1017 87 966 q 144 1069 142 1067 q 168 1086 153 1085 m 918 3 l 605 -8 q 587 7 587 -7 q 595 81 587 37 q 638 165 604 124 q 724 254 672 206 q 801 331 776 302 q 825 378 825 359 q 808 408 825 397 q 765 419 791 419 q 698 411 739 419 q 641 402 657 402 q 625 421 625 402 l 637 517 q 641 530 638 526 q 683 543 644 533 q 797 553 722 553 q 921 514 873 553 q 969 395 969 475 q 945 312 969 345 q 862 218 913 267 q 781 130 812 169 l 930 136 q 946 116 946 135 l 936 20 q 918 3 935 4 z "},"¾":{"ha":985,"x_min":58,"x_max":954,"o":"m 890 1036 l 280 -3 q 260 -18 270 -18 l 178 26 q 164 42 164 34 q 168 58 164 51 l 779 1096 q 798 1112 788 1111 l 881 1067 q 895 1051 895 1059 q 890 1036 895 1043 m 912 529 l 877 225 l 937 227 q 954 210 954 227 l 943 121 q 926 103 941 104 l 863 101 l 853 14 q 836 -3 851 -3 l 720 -7 q 705 6 705 -7 l 729 96 l 541 90 q 522 100 522 90 q 527 119 522 111 l 764 525 q 795 543 774 542 l 899 547 q 912 529 912 546 m 683 218 l 755 221 l 774 380 l 683 218 m 168 1086 l 338 1092 q 351 1074 351 1092 l 307 672 l 377 675 q 393 657 393 674 l 382 561 q 365 543 380 544 l 75 533 q 58 551 58 535 l 69 648 q 74 661 71 657 q 87 665 77 665 l 159 668 l 189 944 l 104 940 q 87 958 87 941 q 115 1017 87 966 q 144 1069 142 1067 q 168 1086 153 1085 z "},"¿":{"ha":555,"x_min":27,"x_max":446,"o":"m 399 527 q 413 513 413 527 q 378 319 413 397 q 305 194 347 247 q 221 72 242 115 q 200 -22 200 29 q 282 -110 200 -110 q 369 -100 317 -110 q 431 -91 420 -91 q 446 -110 446 -91 l 429 -239 q 412 -257 428 -252 q 239 -278 294 -278 q 85 -214 142 -278 q 27 -57 27 -150 q 53 96 27 36 q 119 208 79 156 q 174 280 159 260 q 209 339 188 300 q 248 504 248 409 q 265 522 248 521 l 399 527 m 345 825 q 367 825 345 825 q 416 797 389 825 q 444 725 444 769 q 408 647 444 682 q 328 612 372 612 q 256 640 283 612 q 229 712 229 668 q 264 791 229 756 q 345 825 300 825 z "},"À":{"ha":654,"x_min":20,"x_max":580,"o":"m 500 1041 l 580 20 q 562 3 580 4 l 420 -3 q 406 10 406 -3 l 396 234 l 242 228 l 191 19 q 186 6 189 9 q 174 2 182 3 l 33 -3 q 20 10 20 -3 l 317 1036 q 336 1052 322 1051 l 485 1057 q 500 1041 499 1057 m 372 762 l 277 372 l 390 376 l 372 762 m 412 1308 q 433 1291 426 1307 l 483 1161 q 465 1143 483 1143 l 373 1138 q 351 1152 363 1139 l 240 1286 q 256 1303 240 1302 l 412 1308 z "},"Á":{"ha":654,"x_min":20,"x_max":587,"o":"m 500 1041 l 580 20 q 562 3 580 4 l 420 -3 q 406 10 406 -3 l 396 234 l 242 228 l 191 19 q 186 6 189 9 q 174 2 182 3 l 33 -3 q 20 10 20 -3 l 317 1036 q 336 1052 322 1051 l 485 1057 q 500 1041 499 1057 m 372 762 l 277 372 l 390 376 l 372 762 m 587 1292 l 476 1151 q 446 1135 464 1137 l 357 1132 q 342 1145 342 1133 l 397 1282 q 426 1299 403 1298 l 570 1309 q 587 1292 587 1308 z "},"Â":{"ha":654,"x_min":20,"x_max":677,"o":"m 500 1041 l 580 20 q 562 3 580 4 l 420 -3 q 406 10 406 -3 l 396 234 l 242 228 l 191 19 q 186 6 189 9 q 174 2 182 3 l 33 -3 q 20 10 20 -3 l 317 1036 q 336 1052 322 1051 l 485 1057 q 500 1041 499 1057 m 372 762 l 277 372 l 390 376 l 372 762 m 558 1297 l 677 1146 q 661 1128 677 1129 l 562 1124 q 537 1138 555 1124 l 431 1230 l 317 1131 q 290 1115 301 1116 l 194 1111 q 179 1124 179 1112 l 333 1293 q 353 1307 344 1306 l 536 1315 q 558 1297 545 1315 z "},"Ã":{"ha":654,"x_min":20,"x_max":674,"o":"m 500 1041 l 580 20 q 562 3 580 4 l 420 -3 q 406 10 406 -3 l 396 234 l 242 228 l 191 19 q 186 6 189 9 q 174 2 182 3 l 33 -3 q 20 10 20 -3 l 317 1036 q 336 1052 322 1051 l 485 1057 q 500 1041 499 1057 m 372 762 l 277 372 l 390 376 l 372 762 m 355 1303 q 449 1283 393 1303 q 534 1262 505 1262 q 605 1280 564 1262 q 657 1298 646 1298 q 670 1286 669 1298 l 674 1236 q 659 1208 674 1221 q 634 1187 644 1194 q 604 1166 625 1179 q 517 1139 564 1139 q 418 1160 470 1139 q 335 1181 366 1181 q 262 1163 303 1181 q 210 1145 221 1145 q 198 1156 199 1145 l 194 1207 q 209 1235 194 1219 q 355 1303 275 1303 z "},"Ä":{"ha":654,"x_min":20,"x_max":663,"o":"m 500 1041 l 580 20 q 562 3 580 4 l 420 -3 q 406 10 406 -3 l 396 234 l 242 228 l 191 19 q 186 6 189 9 q 174 2 182 3 l 33 -3 q 20 10 20 -3 l 317 1036 q 336 1052 322 1051 l 485 1057 q 500 1041 499 1057 m 372 762 l 277 372 l 390 376 l 372 762 m 279 1144 q 260 1144 279 1144 q 219 1164 241 1144 q 197 1220 197 1185 q 227 1282 197 1256 q 294 1308 256 1308 q 354 1288 331 1308 q 376 1232 376 1267 q 347 1170 376 1196 q 279 1144 317 1144 m 566 1144 q 547 1144 566 1144 q 506 1165 528 1144 q 484 1221 484 1185 q 513 1283 484 1257 q 580 1308 542 1308 q 641 1288 618 1308 q 663 1232 663 1267 q 633 1170 663 1196 q 566 1144 603 1144 z "},"Å":{"ha":654,"x_min":20,"x_max":581,"o":"m 500 1041 l 580 20 q 562 3 580 4 l 420 -3 q 406 10 406 -3 l 396 234 l 242 228 l 191 19 q 186 6 189 9 q 174 2 182 3 l 33 -3 q 20 10 20 -3 l 317 1036 q 336 1052 322 1051 l 485 1057 q 500 1041 499 1057 m 372 762 l 277 372 l 390 376 l 372 762 m 403 985 q 369 985 403 985 q 294 1022 335 985 q 253 1122 253 1060 q 307 1230 253 1183 q 430 1277 361 1277 q 539 1239 498 1277 q 581 1139 581 1200 q 526 1031 581 1078 q 403 985 471 985 m 424 1204 q 406 1204 424 1204 q 361 1181 389 1204 q 334 1125 334 1158 q 354 1075 334 1093 q 409 1056 374 1056 q 473 1079 445 1056 q 500 1134 500 1103 q 479 1185 500 1166 q 424 1204 458 1204 z "},"Æ":{"ha":912,"x_min":6,"x_max":897,"o":"m 578 1042 l 483 960 l 294 379 l 490 389 l 490 248 l 246 232 l 178 20 q 172 6 174 9 q 161 3 169 3 l 20 -3 q 6 10 6 -3 l 378 1036 q 395 1052 384 1052 l 880 1065 l 578 1042 m 806 464 l 595 456 l 563 178 l 823 186 q 840 169 840 186 l 823 28 q 805 11 821 14 l 388 -3 q 373 10 373 -3 l 490 1036 q 508 1052 493 1050 l 880 1065 q 897 1046 897 1063 l 880 906 q 862 888 878 889 l 644 882 l 614 629 l 823 637 q 841 619 841 636 l 823 481 q 806 464 821 465 z "},"Ç":{"ha":593,"x_min":94,"x_max":607,"o":"m 511 31 q 506 19 509 22 q 439 4 503 16 q 312 -7 376 -7 q 150 61 206 -7 q 94 248 94 130 q 144 734 94 457 q 209 944 170 884 q 307 1032 250 1007 q 459 1063 378 1063 q 567 1059 540 1063 q 598 1054 595 1055 q 607 1037 607 1051 l 591 911 q 578 893 589 893 q 528 899 567 893 q 464 905 488 905 q 365 872 399 905 q 314 746 331 839 q 282 495 298 652 q 267 255 267 338 q 353 157 267 157 q 441 165 378 157 q 512 174 503 174 q 526 157 526 174 l 511 31 m 351 -142 l 274 -150 q 239 -134 254 -150 q 224 -98 224 -117 q 263 38 224 -78 l 324 31 l 299 -69 q 396 -56 355 -56 q 468 -85 437 -56 q 498 -185 498 -115 q 453 -297 498 -256 q 327 -338 407 -338 q 255 -330 293 -338 q 201 -316 216 -323 q 185 -296 185 -309 q 192 -233 185 -283 q 204 -222 194 -222 q 248 -233 214 -222 q 313 -245 283 -245 q 392 -191 392 -245 q 380 -154 392 -166 q 351 -142 369 -142 z "},"È":{"ha":614,"x_min":75,"x_max":598,"o":"m 507 464 l 296 456 l 264 178 l 524 186 q 542 169 542 186 l 524 28 q 507 11 523 14 l 90 -3 q 75 10 75 -3 l 192 1036 q 210 1052 195 1050 l 581 1065 q 598 1046 598 1063 l 581 906 q 564 888 579 889 l 345 882 l 316 629 l 525 637 q 543 619 543 636 l 525 481 q 507 464 522 465 m 396 1308 q 417 1291 410 1307 l 467 1161 q 449 1143 467 1143 l 357 1138 q 334 1152 347 1139 l 224 1286 q 239 1303 224 1302 l 396 1308 z "},"É":{"ha":614,"x_min":75,"x_max":598,"o":"m 507 464 l 296 456 l 264 178 l 524 186 q 542 169 542 186 l 524 28 q 507 11 523 14 l 90 -3 q 75 10 75 -3 l 192 1036 q 210 1052 195 1050 l 581 1065 q 598 1046 598 1063 l 581 906 q 564 888 579 889 l 345 882 l 316 629 l 525 637 q 543 619 543 636 l 525 481 q 507 464 522 465 m 571 1292 l 460 1151 q 429 1135 448 1137 l 340 1132 q 326 1145 326 1133 l 380 1282 q 410 1299 387 1298 l 553 1309 q 571 1292 571 1308 z "},"Ê":{"ha":614,"x_min":75,"x_max":661,"o":"m 507 464 l 296 456 l 264 178 l 524 186 q 542 169 542 186 l 524 28 q 507 11 523 14 l 90 -3 q 75 10 75 -3 l 192 1036 q 210 1052 195 1050 l 581 1065 q 598 1046 598 1063 l 581 906 q 564 888 579 889 l 345 882 l 316 629 l 525 637 q 543 619 543 636 l 525 481 q 507 464 522 465 m 542 1297 l 661 1146 q 644 1128 661 1129 l 546 1124 q 521 1138 538 1124 l 414 1230 l 301 1131 q 274 1115 285 1116 l 178 1111 q 163 1124 163 1112 l 317 1293 q 336 1307 328 1306 l 520 1315 q 542 1297 529 1315 z "},"Ë":{"ha":614,"x_min":75,"x_max":647,"o":"m 507 464 l 296 456 l 264 178 l 524 186 q 542 169 542 186 l 524 28 q 507 11 523 14 l 90 -3 q 75 10 75 -3 l 192 1036 q 210 1052 195 1050 l 581 1065 q 598 1046 598 1063 l 581 906 q 564 888 579 889 l 345 882 l 316 629 l 525 637 q 543 619 543 636 l 525 481 q 507 464 522 465 m 263 1144 q 244 1144 263 1144 q 203 1164 225 1144 q 181 1220 181 1185 q 211 1282 181 1256 q 277 1308 240 1308 q 337 1288 315 1308 q 360 1232 360 1267 q 330 1170 360 1196 q 263 1144 300 1144 m 549 1144 q 531 1144 549 1144 q 490 1165 512 1144 q 467 1221 467 1185 q 496 1283 467 1257 q 564 1308 526 1308 q 624 1288 602 1308 q 647 1232 647 1267 q 617 1170 647 1196 q 549 1144 587 1144 z "},"Ì":{"ha":378,"x_min":75,"x_max":363,"o":"m 363 1040 l 247 19 q 229 2 245 3 l 90 -3 q 75 10 75 -3 l 192 1036 q 210 1052 195 1050 l 345 1057 q 363 1040 363 1056 m 282 1308 q 303 1291 296 1307 l 353 1161 q 335 1143 353 1143 l 243 1138 q 220 1152 233 1139 l 110 1286 q 125 1303 110 1302 l 282 1308 z "},"Í":{"ha":378,"x_min":75,"x_max":457,"o":"m 363 1040 l 247 19 q 229 2 245 3 l 90 -3 q 75 10 75 -3 l 192 1036 q 210 1052 195 1050 l 345 1057 q 363 1040 363 1056 m 457 1292 l 346 1151 q 315 1135 334 1137 l 227 1132 q 212 1145 212 1133 l 267 1282 q 296 1299 273 1298 l 439 1309 q 457 1292 457 1308 z "},"Î":{"ha":378,"x_min":49,"x_max":547,"o":"m 363 1040 l 247 19 q 229 2 245 3 l 90 -3 q 75 10 75 -3 l 192 1036 q 210 1052 195 1050 l 345 1057 q 363 1040 363 1056 m 428 1297 l 547 1146 q 530 1128 547 1129 l 432 1124 q 407 1138 425 1124 l 300 1230 l 187 1131 q 160 1115 171 1116 l 64 1111 q 49 1124 49 1112 l 203 1293 q 222 1307 214 1306 l 406 1315 q 428 1297 415 1315 z "},"Ï":{"ha":378,"x_min":67,"x_max":533,"o":"m 363 1040 l 247 19 q 229 2 245 3 l 90 -3 q 75 10 75 -3 l 192 1036 q 210 1052 195 1050 l 345 1057 q 363 1040 363 1056 m 149 1144 q 130 1144 149 1144 q 89 1164 111 1144 q 67 1220 67 1185 q 97 1282 67 1256 q 163 1308 126 1308 q 223 1288 201 1308 q 246 1232 246 1267 q 216 1170 246 1196 q 149 1144 186 1144 m 435 1144 q 417 1144 435 1144 q 376 1165 398 1144 q 353 1221 353 1185 q 382 1283 353 1257 q 450 1308 412 1308 q 510 1288 488 1308 q 533 1232 533 1267 q 503 1170 533 1196 q 435 1144 473 1144 z "},"Ð":{"ha":718,"x_min":18,"x_max":680,"o":"m 49 522 l 380 533 q 397 516 397 532 l 382 394 q 377 381 380 385 q 366 377 374 378 l 34 364 q 18 382 18 366 l 31 504 q 49 522 33 522 m 192 1036 q 197 1048 193 1044 q 265 1057 200 1051 q 444 1063 330 1063 q 618 998 557 1063 q 680 819 680 932 q 631 323 680 604 q 548 102 606 175 q 382 15 495 36 q 258 3 332 6 l 90 -3 q 75 10 75 -2 l 192 1036 m 347 905 l 264 167 q 405 206 366 176 q 459 322 444 237 q 490 555 475 408 q 505 798 505 703 q 478 880 505 853 q 405 907 451 907 q 347 905 358 907 z "},"Ñ":{"ha":736,"x_min":75,"x_max":723,"o":"m 722 1043 l 605 22 q 587 5 602 6 l 453 -3 q 439 10 441 -3 l 297 734 l 247 19 q 229 2 246 3 l 90 -3 q 75 10 75 -3 l 192 1036 q 210 1052 195 1050 l 347 1059 q 360 1056 357 1059 q 365 1043 363 1052 l 503 359 l 550 1036 q 568 1052 551 1051 l 703 1059 q 722 1043 722 1059 m 404 1303 q 497 1283 441 1303 q 583 1262 553 1262 q 654 1280 613 1262 q 706 1298 695 1298 q 719 1286 718 1298 l 723 1236 q 708 1208 723 1221 q 683 1187 692 1194 q 653 1166 673 1179 q 566 1139 613 1139 q 467 1160 519 1139 q 384 1181 415 1181 q 311 1163 352 1181 q 259 1145 270 1145 q 247 1156 248 1145 l 243 1207 q 258 1235 243 1219 q 404 1303 324 1303 z "},"Ò":{"ha":710,"x_min":94,"x_max":674,"o":"m 325 -10 q 267 -10 325 -10 q 152 58 210 -10 q 94 227 94 125 q 146 739 94 486 q 260 1005 187 938 q 443 1067 330 1067 q 615 999 557 1067 q 674 830 674 930 q 661 588 674 730 q 629 351 648 446 q 597 212 610 256 q 561 123 584 168 q 507 52 538 79 q 325 -10 439 -10 m 342 150 q 452 309 428 150 q 485 570 469 414 q 501 791 501 727 q 480 881 501 854 q 422 907 460 907 q 315 748 343 907 q 283 494 299 654 q 267 268 267 334 q 288 176 267 202 q 342 150 309 150 m 446 1308 q 467 1291 460 1307 l 517 1161 q 499 1143 517 1143 l 407 1138 q 385 1152 397 1139 l 274 1286 q 290 1303 274 1302 l 446 1308 z "},"Ó":{"ha":710,"x_min":94,"x_max":674,"o":"m 325 -10 q 267 -10 325 -10 q 152 58 210 -10 q 94 227 94 125 q 146 739 94 486 q 260 1005 187 938 q 443 1067 330 1067 q 615 999 557 1067 q 674 830 674 930 q 661 588 674 730 q 629 351 648 446 q 597 212 610 256 q 561 123 584 168 q 507 52 538 79 q 325 -10 439 -10 m 342 150 q 452 309 428 150 q 485 570 469 414 q 501 791 501 727 q 480 881 501 854 q 422 907 460 907 q 315 748 343 907 q 283 494 299 654 q 267 268 267 334 q 288 176 267 202 q 342 150 309 150 m 621 1292 l 510 1151 q 479 1135 498 1137 l 391 1132 q 376 1145 376 1133 l 431 1282 q 460 1299 437 1298 l 604 1309 q 621 1292 621 1308 z "},"Ô":{"ha":710,"x_min":94,"x_max":711,"o":"m 325 -10 q 267 -10 325 -10 q 152 58 210 -10 q 94 227 94 125 q 146 739 94 486 q 260 1005 187 938 q 443 1067 330 1067 q 615 999 557 1067 q 674 830 674 930 q 661 588 674 730 q 629 351 648 446 q 597 212 610 256 q 561 123 584 168 q 507 52 538 79 q 325 -10 439 -10 m 342 150 q 452 309 428 150 q 485 570 469 414 q 501 791 501 727 q 480 881 501 854 q 422 907 460 907 q 315 748 343 907 q 283 494 299 654 q 267 268 267 334 q 288 176 267 202 q 342 150 309 150 m 592 1297 l 711 1146 q 694 1128 711 1129 l 596 1124 q 571 1138 589 1124 l 465 1230 l 351 1131 q 324 1115 335 1116 l 228 1111 q 213 1124 213 1112 l 367 1293 q 387 1307 378 1306 l 570 1315 q 592 1297 579 1315 z "},"Õ":{"ha":710,"x_min":94,"x_max":708,"o":"m 325 -10 q 267 -10 325 -10 q 152 58 210 -10 q 94 227 94 125 q 146 739 94 486 q 260 1005 187 938 q 443 1067 330 1067 q 615 999 557 1067 q 674 830 674 930 q 661 588 674 730 q 629 351 648 446 q 597 212 610 256 q 561 123 584 168 q 507 52 538 79 q 325 -10 439 -10 m 342 150 q 452 309 428 150 q 485 570 469 414 q 501 791 501 727 q 480 881 501 854 q 422 907 460 907 q 315 748 343 907 q 283 494 299 654 q 267 268 267 334 q 288 176 267 202 q 342 150 309 150 m 389 1303 q 483 1283 427 1303 q 568 1262 538 1262 q 639 1280 598 1262 q 691 1298 680 1298 q 704 1286 703 1298 l 708 1236 q 693 1208 708 1221 q 668 1187 677 1194 q 638 1166 659 1179 q 551 1139 598 1139 q 452 1160 504 1139 q 369 1181 400 1181 q 296 1163 337 1181 q 244 1145 255 1145 q 232 1156 233 1145 l 228 1207 q 243 1235 228 1219 q 389 1303 309 1303 z "},"Ö":{"ha":710,"x_min":94,"x_max":697,"o":"m 325 -10 q 267 -10 325 -10 q 152 58 210 -10 q 94 227 94 125 q 146 739 94 486 q 260 1005 187 938 q 443 1067 330 1067 q 615 999 557 1067 q 674 830 674 930 q 661 588 674 730 q 629 351 648 446 q 597 212 610 256 q 561 123 584 168 q 507 52 538 79 q 325 -10 439 -10 m 342 150 q 452 309 428 150 q 485 570 469 414 q 501 791 501 727 q 480 881 501 854 q 422 907 460 907 q 315 748 343 907 q 283 494 299 654 q 267 268 267 334 q 288 176 267 202 q 342 150 309 150 m 313 1144 q 294 1144 313 1144 q 253 1164 275 1144 q 231 1220 231 1185 q 261 1282 231 1256 q 328 1308 290 1308 q 388 1288 365 1308 q 410 1232 410 1267 q 380 1170 410 1196 q 313 1144 351 1144 m 600 1144 q 581 1144 600 1144 q 540 1165 562 1144 q 517 1221 517 1185 q 547 1283 517 1257 q 614 1308 576 1308 q 674 1288 652 1308 q 697 1232 697 1267 q 667 1170 697 1196 q 600 1144 637 1144 z "},"×":{"ha":654,"x_min":104,"x_max":625,"o":"m 620 626 l 461 481 l 581 324 q 585 314 585 320 q 578 302 585 309 l 493 227 q 482 220 486 220 q 468 231 478 220 l 353 381 l 203 243 q 189 235 194 235 q 180 239 184 235 l 108 327 q 104 336 104 331 q 109 346 104 342 l 269 492 l 159 637 q 155 649 155 643 q 163 661 155 654 l 252 732 q 262 736 258 736 q 275 726 267 736 l 378 590 l 528 727 q 543 736 538 736 q 551 732 547 736 l 621 645 q 625 634 625 638 q 620 626 625 629 z "},"Ø":{"ha":710,"x_min":94,"x_max":674,"o":"m 595 1133 l 212 -79 q 195 -93 207 -93 l 174 -88 q 160 -76 160 -85 l 545 1141 q 564 1152 549 1152 l 580 1149 q 595 1133 595 1145 m 325 -10 q 267 -10 325 -10 q 152 58 210 -10 q 94 227 94 125 q 146 739 94 486 q 260 1005 187 938 q 443 1067 330 1067 q 615 999 557 1067 q 674 830 674 930 q 661 588 674 730 q 629 351 648 446 q 597 212 610 256 q 561 123 584 168 q 507 52 538 79 q 325 -10 439 -10 m 342 150 q 452 309 428 150 q 485 570 469 414 q 501 791 501 727 q 480 881 501 854 q 422 907 460 907 q 315 748 343 907 q 283 494 299 654 q 267 268 267 334 q 288 176 267 202 q 342 150 309 150 z "},"Ù":{"ha":721,"x_min":105,"x_max":706,"o":"m 363 1040 l 285 345 q 275 231 275 265 q 294 174 275 197 q 356 150 313 150 q 421 193 399 150 q 454 330 444 235 l 534 1036 q 552 1052 536 1051 l 689 1057 q 706 1041 706 1057 l 628 345 q 518 53 604 132 q 336 -10 448 -10 q 164 48 224 -10 q 105 222 105 107 q 112 336 105 277 l 192 1036 q 196 1048 193 1045 q 209 1052 199 1051 l 346 1057 q 363 1040 363 1056 m 453 1308 q 474 1291 467 1307 l 524 1161 q 506 1143 524 1143 l 414 1138 q 391 1152 404 1139 l 281 1286 q 296 1303 281 1302 l 453 1308 z "},"Ú":{"ha":721,"x_min":105,"x_max":706,"o":"m 363 1040 l 285 345 q 275 231 275 265 q 294 174 275 197 q 356 150 313 150 q 421 193 399 150 q 454 330 444 235 l 534 1036 q 552 1052 536 1051 l 689 1057 q 706 1041 706 1057 l 628 345 q 518 53 604 132 q 336 -10 448 -10 q 164 48 224 -10 q 105 222 105 107 q 112 336 105 277 l 192 1036 q 196 1048 193 1045 q 209 1052 199 1051 l 346 1057 q 363 1040 363 1056 m 628 1292 l 517 1151 q 486 1135 505 1137 l 397 1132 q 382 1145 382 1133 l 437 1282 q 467 1299 444 1298 l 610 1309 q 628 1292 628 1308 z "},"Û":{"ha":721,"x_min":105,"x_max":718,"o":"m 363 1040 l 285 345 q 275 231 275 265 q 294 174 275 197 q 356 150 313 150 q 421 193 399 150 q 454 330 444 235 l 534 1036 q 552 1052 536 1051 l 689 1057 q 706 1041 706 1057 l 628 345 q 518 53 604 132 q 336 -10 448 -10 q 164 48 224 -10 q 105 222 105 107 q 112 336 105 277 l 192 1036 q 196 1048 193 1045 q 209 1052 199 1051 l 346 1057 q 363 1040 363 1056 m 599 1297 l 718 1146 q 701 1128 718 1129 l 603 1124 q 578 1138 595 1124 l 471 1230 l 358 1131 q 331 1115 342 1116 l 235 1111 q 220 1124 220 1112 l 374 1293 q 393 1307 385 1306 l 577 1315 q 599 1297 586 1315 z "},"Ü":{"ha":721,"x_min":105,"x_max":706,"o":"m 363 1040 l 285 345 q 275 231 275 265 q 294 174 275 197 q 356 150 313 150 q 421 193 399 150 q 454 330 444 235 l 534 1036 q 552 1052 536 1051 l 689 1057 q 706 1041 706 1057 l 628 345 q 518 53 604 132 q 336 -10 448 -10 q 164 48 224 -10 q 105 222 105 107 q 112 336 105 277 l 192 1036 q 196 1048 193 1045 q 209 1052 199 1051 l 346 1057 q 363 1040 363 1056 m 320 1144 q 301 1144 320 1144 q 260 1164 282 1144 q 238 1220 238 1185 q 268 1282 238 1256 q 334 1308 297 1308 q 394 1288 372 1308 q 417 1232 417 1267 q 387 1170 417 1196 q 320 1144 357 1144 m 606 1144 q 588 1144 606 1144 q 547 1165 569 1144 q 524 1221 524 1185 q 553 1283 524 1257 q 621 1308 583 1308 q 681 1288 659 1308 q 704 1232 704 1267 q 674 1170 704 1196 q 606 1144 644 1144 z "},"Ý":{"ha":608,"x_min":103,"x_max":668,"o":"m 277 1044 l 354 656 l 493 1036 q 510 1052 498 1051 l 650 1057 q 663 1051 658 1056 q 668 1041 668 1046 l 415 475 l 363 19 q 345 2 361 3 l 205 -3 q 191 10 191 -3 l 241 460 l 103 1041 q 121 1052 103 1050 l 259 1057 q 277 1044 274 1057 m 574 1292 l 463 1151 q 432 1135 450 1137 l 343 1132 q 328 1145 328 1133 l 383 1282 q 412 1299 389 1298 l 556 1309 q 574 1292 574 1308 z "},"Þ":{"ha":682,"x_min":75,"x_max":658,"o":"m 266 205 l 285 363 q 447 415 410 363 q 484 604 484 468 q 455 685 484 659 q 381 711 427 711 q 325 709 335 711 l 180 842 q 197 858 182 857 q 432 868 318 868 q 602 811 545 868 q 658 639 658 755 q 634 433 658 524 q 266 205 574 205 m 363 1040 l 247 19 q 229 2 245 3 l 90 -3 q 75 10 75 -3 l 192 1036 q 210 1052 195 1050 l 345 1057 q 363 1040 363 1056 z "},"ß":{"ha":794,"x_min":63,"x_max":766,"o":"m 94 815 l 178 819 l 191 926 q 273 1111 203 1040 q 481 1188 347 1188 q 690 1129 614 1188 q 766 970 766 1071 q 747 879 766 918 q 700 804 728 840 q 661 753 671 768 q 636 713 650 739 q 609 612 609 665 q 645 484 609 559 q 692 384 682 408 q 728 241 728 303 q 662 58 728 123 q 474 -7 595 -7 q 354 21 354 -7 l 370 154 q 382 171 372 171 q 429 163 401 171 q 486 156 457 156 q 532 180 514 156 q 550 234 550 204 q 541 297 550 264 q 486 437 531 335 q 440 614 440 538 q 483 762 440 692 q 522 817 498 786 q 556 863 546 848 q 587 946 587 905 q 558 1011 587 986 q 471 1037 529 1037 q 384 999 413 1037 q 345 867 355 960 l 256 20 q 238 2 254 2 l 102 -3 q 87 10 87 -1 l 162 676 l 81 673 q 63 690 63 673 l 76 799 q 94 815 78 815 z "},"à":{"ha":715,"x_min":89,"x_max":673,"o":"m 673 802 l 585 20 q 568 2 583 3 l 431 -3 q 416 10 416 -1 l 429 102 q 361 21 398 50 q 278 -7 324 -7 q 199 8 232 -7 q 146 51 167 24 q 113 113 125 77 q 89 291 89 178 q 104 483 89 404 q 131 603 119 562 q 162 687 142 644 q 205 760 181 730 q 346 826 261 826 q 442 796 409 826 q 498 707 475 766 l 506 799 q 523 815 507 814 l 656 820 q 673 802 673 819 m 260 311 q 347 149 260 149 q 408 183 385 149 q 449 323 432 218 q 467 477 467 429 q 466 538 467 525 q 463 572 465 551 q 456 608 461 593 q 441 637 450 623 q 385 667 424 667 q 322 632 345 667 q 286 538 299 597 q 260 311 260 414 m 429 1198 l 499 926 q 483 907 499 907 l 404 904 q 381 919 387 904 l 264 1196 q 279 1213 264 1212 l 408 1217 q 429 1198 425 1217 z "},"á":{"ha":715,"x_min":89,"x_max":673,"o":"m 673 802 l 585 20 q 568 2 583 3 l 431 -3 q 416 10 416 -1 l 429 102 q 361 21 398 50 q 278 -7 324 -7 q 199 8 232 -7 q 146 51 167 24 q 113 113 125 77 q 89 291 89 178 q 104 483 89 404 q 131 603 119 562 q 162 687 142 644 q 205 760 181 730 q 346 826 261 826 q 442 796 409 826 q 498 707 475 766 l 506 799 q 523 815 507 814 l 656 820 q 673 802 673 819 m 260 311 q 347 149 260 149 q 408 183 385 149 q 449 323 432 218 q 467 477 467 429 q 466 538 467 525 q 463 572 465 551 q 456 608 461 593 q 441 637 450 623 q 385 667 424 667 q 322 632 345 667 q 286 538 299 597 q 260 311 260 414 m 630 1206 l 500 927 q 476 912 493 913 l 385 909 q 370 922 370 910 l 462 1202 q 484 1220 468 1219 l 612 1225 q 630 1206 630 1223 z "},"â":{"ha":715,"x_min":89,"x_max":673,"o":"m 673 802 l 585 20 q 568 2 583 3 l 431 -3 q 416 10 416 -1 l 429 102 q 361 21 398 50 q 278 -7 324 -7 q 199 8 232 -7 q 146 51 167 24 q 113 113 125 77 q 89 291 89 178 q 104 483 89 404 q 131 603 119 562 q 162 687 142 644 q 205 760 181 730 q 346 826 261 826 q 442 796 409 826 q 498 707 475 766 l 506 799 q 523 815 507 814 l 656 820 q 673 802 673 819 m 260 311 q 347 149 260 149 q 408 183 385 149 q 449 323 432 218 q 467 477 467 429 q 466 538 467 525 q 463 572 465 551 q 456 608 461 593 q 441 637 450 623 q 385 667 424 667 q 322 632 345 667 q 286 538 299 597 q 260 311 260 414 m 550 1210 l 632 939 q 629 925 632 929 q 616 920 626 920 l 528 916 q 507 930 511 918 l 455 1083 l 359 937 q 334 920 349 921 l 245 916 q 231 930 231 918 l 385 1205 q 408 1223 393 1222 l 528 1227 q 550 1210 545 1227 z "},"ã":{"ha":715,"x_min":89,"x_max":679,"o":"m 673 802 l 585 20 q 568 2 583 3 l 431 -3 q 416 10 416 -1 l 429 102 q 361 21 398 50 q 278 -7 324 -7 q 199 8 232 -7 q 146 51 167 24 q 113 113 125 77 q 89 291 89 178 q 104 483 89 404 q 131 603 119 562 q 162 687 142 644 q 205 760 181 730 q 346 826 261 826 q 442 796 409 826 q 498 707 475 766 l 506 799 q 523 815 507 814 l 656 820 q 673 802 673 819 m 260 311 q 347 149 260 149 q 408 183 385 149 q 449 323 432 218 q 467 477 467 429 q 466 538 467 525 q 463 572 465 551 q 456 608 461 593 q 441 637 450 623 q 385 667 424 667 q 322 632 345 667 q 286 538 299 597 q 260 311 260 414 m 391 1130 q 469 1108 421 1130 q 544 1086 517 1086 q 609 1103 570 1086 q 661 1120 648 1120 q 675 1107 673 1120 l 679 1056 q 663 1028 679 1043 q 515 955 589 955 q 437 976 484 955 q 363 997 389 997 q 297 980 336 997 q 245 964 257 964 q 233 977 234 964 l 229 1027 q 243 1055 229 1040 q 391 1130 318 1130 z "},"ä":{"ha":715,"x_min":89,"x_max":677,"o":"m 673 802 l 585 20 q 568 2 583 3 l 431 -3 q 416 10 416 -1 l 429 102 q 361 21 398 50 q 278 -7 324 -7 q 199 8 232 -7 q 146 51 167 24 q 113 113 125 77 q 89 291 89 178 q 104 483 89 404 q 131 603 119 562 q 162 687 142 644 q 205 760 181 730 q 346 826 261 826 q 442 796 409 826 q 498 707 475 766 l 506 799 q 523 815 507 814 l 656 820 q 673 802 673 819 m 260 311 q 347 149 260 149 q 408 183 385 149 q 449 323 432 218 q 467 477 467 429 q 466 538 467 525 q 463 572 465 551 q 456 608 461 593 q 441 637 450 623 q 385 667 424 667 q 322 632 345 667 q 286 538 299 597 q 260 311 260 414 m 309 970 q 291 970 309 970 q 250 993 273 970 q 227 1053 227 1017 q 257 1118 227 1089 q 324 1147 287 1147 q 384 1124 361 1147 q 406 1064 406 1101 q 376 999 406 1027 q 309 970 346 970 m 579 970 q 561 970 579 970 q 520 994 543 970 q 498 1054 498 1017 q 527 1119 498 1090 q 594 1147 557 1147 q 654 1124 631 1147 q 677 1064 677 1101 q 647 999 677 1027 q 579 970 616 970 z "},"å":{"ha":715,"x_min":89,"x_max":673,"o":"m 673 802 l 585 20 q 568 2 583 3 l 431 -3 q 416 10 416 -1 l 429 102 q 361 21 398 50 q 278 -7 324 -7 q 199 8 232 -7 q 146 51 167 24 q 113 113 125 77 q 89 291 89 178 q 104 483 89 404 q 131 603 119 562 q 162 687 142 644 q 205 760 181 730 q 346 826 261 826 q 442 796 409 826 q 498 707 475 766 l 506 799 q 523 815 507 814 l 656 820 q 673 802 673 819 m 260 311 q 347 149 260 149 q 408 183 385 149 q 449 323 432 218 q 467 477 467 429 q 466 538 467 525 q 463 572 465 551 q 456 608 461 593 q 441 637 450 623 q 385 667 424 667 q 322 632 345 667 q 286 538 299 597 q 260 311 260 414 m 439 918 q 406 918 439 918 q 331 956 372 918 q 290 1055 290 994 q 344 1164 290 1117 q 467 1211 398 1211 q 576 1172 535 1211 q 617 1073 617 1134 q 562 965 617 1012 q 439 918 507 918 m 460 1138 q 443 1138 460 1138 q 398 1115 425 1138 q 370 1059 370 1091 q 390 1008 370 1027 q 446 989 410 989 q 509 1013 481 989 q 537 1068 537 1036 q 516 1119 537 1099 q 460 1138 495 1138 z "},"æ":{"ha":1013,"x_min":66,"x_max":953,"o":"m 457 130 q 260 -7 387 -7 q 117 51 167 -7 q 66 213 66 109 q 301 465 66 435 q 446 477 357 471 q 450 535 450 508 q 445 585 450 562 q 429 629 440 608 q 340 675 404 675 q 236 659 277 675 q 184 643 194 643 q 161 663 161 643 l 175 783 q 179 796 176 793 q 201 805 182 800 q 276 819 220 811 q 370 826 332 826 q 546 741 489 826 q 747 826 620 826 q 900 759 848 826 q 953 577 953 692 q 939 394 953 463 q 918 375 936 376 l 587 364 q 585 310 585 334 q 611 189 585 233 q 686 144 638 144 q 795 160 752 144 q 847 176 838 176 q 868 155 868 176 l 854 36 q 851 23 854 26 q 839 16 848 20 q 659 -7 757 -7 q 457 130 507 -7 m 305 149 q 385 185 359 149 q 434 361 423 239 q 252 313 296 361 q 225 236 225 283 q 305 149 225 149 m 602 507 l 598 485 l 770 494 q 793 516 791 494 q 795 560 795 537 q 792 601 795 583 q 783 637 789 618 q 721 679 766 679 q 647 643 675 679 q 602 507 618 608 z "},"ç":{"ha":601,"x_min":89,"x_max":573,"o":"m 558 805 q 573 779 573 800 l 557 656 q 539 643 556 643 q 506 650 522 643 q 397 679 440 679 q 328 643 353 679 q 286 540 302 607 q 257 311 257 414 q 343 144 257 144 q 444 160 406 144 q 494 176 483 176 q 518 155 518 176 l 504 36 q 499 21 503 24 q 489 16 495 19 q 335 -7 407 -7 q 221 11 262 -7 q 155 58 179 29 q 115 127 130 87 q 89 299 89 197 q 102 477 89 401 q 130 600 115 553 q 169 691 144 648 q 226 764 193 735 q 414 826 297 826 q 558 805 493 826 m 324 -149 l 247 -157 q 212 -140 227 -157 q 197 -104 197 -124 q 236 31 197 -85 l 297 24 l 272 -76 q 369 -62 328 -62 q 440 -92 410 -62 q 471 -192 471 -121 q 426 -303 471 -262 q 300 -345 380 -345 q 228 -337 266 -345 q 174 -322 189 -330 q 158 -303 158 -315 q 165 -239 158 -290 q 177 -229 167 -229 q 221 -240 186 -229 q 286 -252 256 -252 q 365 -198 365 -252 q 353 -161 365 -173 q 324 -149 342 -149 z "},"è":{"ha":675,"x_min":89,"x_max":617,"o":"m 116 127 q 108 147 116 127 q 95 207 100 168 q 89 316 89 247 q 104 487 89 385 q 412 826 153 826 q 564 758 511 826 q 617 580 617 689 q 604 368 617 471 q 583 349 602 349 l 248 337 q 247 310 247 327 q 274 189 247 233 q 355 144 300 144 q 455 160 409 144 q 510 176 502 176 q 524 170 518 176 q 530 155 530 165 l 517 36 q 513 23 516 26 q 501 16 510 20 q 343 -7 419 -7 q 225 11 267 -7 q 158 58 183 29 q 116 127 132 87 m 264 507 l 258 464 l 435 473 q 450 477 446 473 q 460 533 460 487 q 457 597 460 578 q 446 635 454 616 q 393 679 431 679 q 334 666 355 679 q 264 507 286 636 m 409 1198 l 479 926 q 463 907 479 907 l 383 904 q 361 919 367 904 l 243 1196 q 259 1213 243 1212 l 387 1217 q 409 1198 404 1217 z "},"é":{"ha":675,"x_min":89,"x_max":617,"o":"m 116 127 q 108 147 116 127 q 95 207 100 168 q 89 316 89 247 q 104 487 89 385 q 412 826 153 826 q 564 758 511 826 q 617 580 617 689 q 604 368 617 471 q 583 349 602 349 l 248 337 q 247 310 247 327 q 274 189 247 233 q 355 144 300 144 q 455 160 409 144 q 510 176 502 176 q 524 170 518 176 q 530 155 530 165 l 517 36 q 513 23 516 26 q 501 16 510 20 q 343 -7 419 -7 q 225 11 267 -7 q 158 58 183 29 q 116 127 132 87 m 264 507 l 258 464 l 435 473 q 450 477 446 473 q 460 533 460 487 q 457 597 460 578 q 446 635 454 616 q 393 679 431 679 q 334 666 355 679 q 264 507 286 636 m 610 1206 l 479 927 q 456 912 473 913 l 365 909 q 350 922 350 910 l 441 1202 q 464 1220 448 1219 l 592 1225 q 610 1206 610 1223 z "},"ê":{"ha":675,"x_min":89,"x_max":617,"o":"m 116 127 q 108 147 116 127 q 95 207 100 168 q 89 316 89 247 q 104 487 89 385 q 412 826 153 826 q 564 758 511 826 q 617 580 617 689 q 604 368 617 471 q 583 349 602 349 l 248 337 q 247 310 247 327 q 274 189 247 233 q 355 144 300 144 q 455 160 409 144 q 510 176 502 176 q 524 170 518 176 q 530 155 530 165 l 517 36 q 513 23 516 26 q 501 16 510 20 q 343 -7 419 -7 q 225 11 267 -7 q 158 58 183 29 q 116 127 132 87 m 264 507 l 258 464 l 435 473 q 450 477 446 473 q 460 533 460 487 q 457 597 460 578 q 446 635 454 616 q 393 679 431 679 q 334 666 355 679 q 264 507 286 636 m 530 1210 l 612 939 q 609 925 612 929 q 595 920 606 920 l 508 916 q 486 930 490 918 l 435 1083 l 338 937 q 314 920 328 921 l 224 916 q 210 930 210 918 l 364 1205 q 387 1223 373 1222 l 507 1227 q 530 1210 524 1227 z "},"ë":{"ha":675,"x_min":89,"x_max":657,"o":"m 116 127 q 108 147 116 127 q 95 207 100 168 q 89 316 89 247 q 104 487 89 385 q 412 826 153 826 q 564 758 511 826 q 617 580 617 689 q 604 368 617 471 q 583 349 602 349 l 248 337 q 247 310 247 327 q 274 189 247 233 q 355 144 300 144 q 455 160 409 144 q 510 176 502 176 q 524 170 518 176 q 530 155 530 165 l 517 36 q 513 23 516 26 q 501 16 510 20 q 343 -7 419 -7 q 225 11 267 -7 q 158 58 183 29 q 116 127 132 87 m 264 507 l 258 464 l 435 473 q 450 477 446 473 q 460 533 460 487 q 457 597 460 578 q 446 635 454 616 q 393 679 431 679 q 334 666 355 679 q 264 507 286 636 m 289 970 q 271 970 289 970 q 230 993 252 970 q 207 1053 207 1017 q 237 1118 207 1089 q 303 1147 267 1147 q 363 1124 340 1147 q 386 1064 386 1101 q 356 999 386 1027 q 289 970 326 970 m 559 970 q 541 970 559 970 q 500 994 523 970 q 477 1054 477 1017 q 507 1119 477 1090 q 573 1147 536 1147 q 634 1124 610 1147 q 657 1064 657 1101 q 626 999 657 1027 q 559 970 595 970 z "},"ì":{"ha":370,"x_min":72,"x_max":329,"o":"m 329 802 l 241 20 q 236 7 239 11 q 223 2 233 3 l 87 -3 q 72 10 72 -1 l 161 799 q 178 815 164 814 l 311 820 q 329 802 329 819 m 243 1198 l 313 926 q 296 907 313 907 l 217 904 q 195 919 201 904 l 77 1196 q 93 1213 77 1212 l 221 1217 q 243 1198 238 1217 z "},"í":{"ha":370,"x_min":72,"x_max":444,"o":"m 329 802 l 241 20 q 236 7 239 11 q 223 2 233 3 l 87 -3 q 72 10 72 -1 l 161 799 q 178 815 164 814 l 311 820 q 329 802 329 819 m 444 1206 l 313 927 q 290 912 307 913 l 199 909 q 184 922 184 910 l 275 1202 q 298 1220 281 1219 l 426 1225 q 444 1206 444 1223 z "},"î":{"ha":370,"x_min":44,"x_max":446,"o":"m 329 802 l 241 20 q 236 7 239 11 q 223 2 233 3 l 87 -3 q 72 10 72 -1 l 161 799 q 178 815 164 814 l 311 820 q 329 802 329 819 m 363 1210 l 446 939 q 443 925 446 929 q 429 920 439 920 l 342 916 q 320 930 324 918 l 269 1083 l 172 937 q 148 920 162 921 l 58 916 q 44 930 44 918 l 198 1205 q 221 1223 207 1222 l 341 1227 q 363 1210 358 1227 z "},"ï":{"ha":370,"x_min":41,"x_max":491,"o":"m 329 802 l 241 20 q 236 7 239 11 q 223 2 233 3 l 87 -3 q 72 10 72 -1 l 161 799 q 178 815 164 814 l 311 820 q 329 802 329 819 m 123 970 q 104 970 123 970 q 63 993 86 970 q 41 1053 41 1017 q 71 1118 41 1089 q 137 1147 100 1147 q 197 1124 174 1147 q 220 1064 220 1101 q 190 999 220 1027 q 123 970 159 970 m 393 970 q 375 970 393 970 q 334 994 357 970 q 311 1054 311 1017 q 341 1119 311 1090 q 407 1147 370 1147 q 468 1124 444 1147 q 491 1064 491 1101 q 460 999 491 1027 q 393 970 429 970 z "},"ð":{"ha":690,"x_min":83,"x_max":622,"o":"m 498 941 q 622 493 622 734 q 533 94 622 235 q 340 -7 469 -7 q 147 65 211 -7 q 83 269 83 138 q 104 456 83 332 q 184 654 125 579 q 345 728 244 728 q 442 695 400 728 q 382 876 425 795 l 309 835 q 295 831 301 831 q 286 837 289 831 l 249 906 q 246 915 246 911 q 254 924 246 919 l 325 969 q 266 1045 294 1011 q 237 1083 237 1079 q 245 1095 237 1088 l 295 1140 q 310 1146 304 1146 q 325 1140 316 1146 q 432 1037 381 1097 l 509 1086 q 524 1091 519 1091 q 533 1084 528 1091 l 578 1001 q 579 992 579 998 q 572 982 579 987 l 498 941 m 330 152 q 353 152 330 152 q 400 185 377 152 q 439 313 423 218 q 457 490 454 408 q 436 567 456 545 q 374 589 416 589 q 308 557 332 589 q 267 434 284 524 q 250 295 250 343 q 253 229 250 248 q 264 191 256 210 q 330 152 283 152 z "},"ñ":{"ha":724,"x_min":72,"x_max":680,"o":"m 330 802 l 322 740 q 509 826 420 826 q 653 701 623 826 q 661 637 661 667 q 659 589 661 607 l 594 20 q 577 2 591 3 l 440 -3 q 425 10 425 -1 l 487 547 q 489 579 489 565 q 463 655 489 635 q 397 675 437 675 q 313 658 357 675 l 241 20 q 224 2 238 3 l 87 -3 q 72 10 72 -1 l 161 799 q 178 815 164 814 l 311 820 q 330 802 330 819 m 391 1129 q 470 1107 422 1129 q 545 1086 518 1086 q 610 1102 571 1086 q 661 1119 648 1119 q 675 1106 674 1119 l 680 1055 q 663 1027 680 1042 q 516 954 590 954 q 438 975 485 954 q 364 996 391 996 q 297 980 337 996 q 246 963 258 963 q 233 976 235 963 l 229 1027 q 244 1055 229 1040 q 391 1129 319 1129 z "},"ò":{"ha":694,"x_min":89,"x_max":635,"o":"m 321 -7 q 261 -7 321 -7 q 145 65 201 -7 q 89 275 89 137 q 103 444 89 340 q 130 594 117 547 q 164 687 142 642 q 217 761 186 732 q 399 826 284 826 q 610 707 562 826 q 635 552 635 643 q 622 365 635 462 q 595 221 608 268 q 561 131 583 175 q 509 57 539 86 q 321 -7 441 -7 m 441 290 q 460 424 448 326 q 472 570 472 523 q 389 686 472 686 q 324 648 349 686 q 283 524 298 611 q 252 238 252 348 q 334 128 252 128 q 400 166 374 128 q 441 290 426 203 m 412 1198 l 482 926 q 466 907 482 907 l 387 904 q 364 919 370 904 l 247 1196 q 262 1213 247 1212 l 391 1217 q 412 1198 408 1217 z "},"ó":{"ha":694,"x_min":89,"x_max":635,"o":"m 321 -7 q 261 -7 321 -7 q 145 65 201 -7 q 89 275 89 137 q 103 444 89 340 q 130 594 117 547 q 164 687 142 642 q 217 761 186 732 q 399 826 284 826 q 610 707 562 826 q 635 552 635 643 q 622 365 635 462 q 595 221 608 268 q 561 131 583 175 q 509 57 539 86 q 321 -7 441 -7 m 441 290 q 460 424 448 326 q 472 570 472 523 q 389 686 472 686 q 324 648 349 686 q 283 524 298 611 q 252 238 252 348 q 334 128 252 128 q 400 166 374 128 q 441 290 426 203 m 613 1206 l 483 927 q 459 912 476 913 l 368 909 q 353 922 353 910 l 445 1202 q 467 1220 451 1219 l 595 1225 q 613 1206 613 1223 z "},"ô":{"ha":694,"x_min":89,"x_max":635,"o":"m 321 -7 q 261 -7 321 -7 q 145 65 201 -7 q 89 275 89 137 q 103 444 89 340 q 130 594 117 547 q 164 687 142 642 q 217 761 186 732 q 399 826 284 826 q 610 707 562 826 q 635 552 635 643 q 622 365 635 462 q 595 221 608 268 q 561 131 583 175 q 509 57 539 86 q 321 -7 441 -7 m 441 290 q 460 424 448 326 q 472 570 472 523 q 389 686 472 686 q 324 648 349 686 q 283 524 298 611 q 252 238 252 348 q 334 128 252 128 q 400 166 374 128 q 441 290 426 203 m 533 1210 l 615 939 q 612 925 615 929 q 599 920 609 920 l 511 916 q 490 930 494 918 l 438 1083 l 342 937 q 317 920 332 921 l 228 916 q 214 930 214 918 l 368 1205 q 391 1223 376 1222 l 511 1227 q 533 1210 528 1227 z "},"õ":{"ha":694,"x_min":89,"x_max":662,"o":"m 321 -7 q 261 -7 321 -7 q 145 65 201 -7 q 89 275 89 137 q 103 444 89 340 q 130 594 117 547 q 164 687 142 642 q 217 761 186 732 q 399 826 284 826 q 610 707 562 826 q 635 552 635 643 q 622 365 635 462 q 595 221 608 268 q 561 131 583 175 q 509 57 539 86 q 321 -7 441 -7 m 441 290 q 460 424 448 326 q 472 570 472 523 q 389 686 472 686 q 324 648 349 686 q 283 524 298 611 q 252 238 252 348 q 334 128 252 128 q 400 166 374 128 q 441 290 426 203 m 374 1130 q 452 1108 404 1130 q 527 1086 500 1086 q 592 1103 553 1086 q 644 1120 631 1120 q 658 1107 656 1120 l 662 1056 q 646 1028 662 1043 q 498 955 572 955 q 420 976 467 955 q 346 997 372 997 q 280 980 319 997 q 229 964 240 964 q 216 977 217 964 l 212 1027 q 227 1055 212 1040 q 374 1130 301 1130 z "},"ö":{"ha":694,"x_min":89,"x_max":661,"o":"m 321 -7 q 261 -7 321 -7 q 145 65 201 -7 q 89 275 89 137 q 103 444 89 340 q 130 594 117 547 q 164 687 142 642 q 217 761 186 732 q 399 826 284 826 q 610 707 562 826 q 635 552 635 643 q 622 365 635 462 q 595 221 608 268 q 561 131 583 175 q 509 57 539 86 q 321 -7 441 -7 m 441 290 q 460 424 448 326 q 472 570 472 523 q 389 686 472 686 q 324 648 349 686 q 283 524 298 611 q 252 238 252 348 q 334 128 252 128 q 400 166 374 128 q 441 290 426 203 m 292 970 q 274 970 292 970 q 233 993 256 970 q 210 1053 210 1017 q 240 1118 210 1089 q 307 1147 270 1147 q 367 1124 344 1147 q 389 1064 389 1101 q 359 999 389 1027 q 292 970 329 970 m 563 970 q 544 970 563 970 q 504 994 526 970 q 481 1054 481 1017 q 510 1119 481 1090 q 577 1147 540 1147 q 637 1124 614 1147 q 661 1064 661 1101 q 630 999 661 1027 q 563 970 599 970 z "},"÷":{"ha":654,"x_min":100,"x_max":591,"o":"m 360 589 q 341 589 360 589 q 298 614 321 589 q 274 677 274 639 q 306 747 274 716 q 376 777 337 777 q 439 752 415 777 q 463 689 463 728 q 431 620 463 650 q 360 589 399 589 m 131 513 l 575 530 q 591 513 591 529 l 576 391 q 559 374 574 374 l 116 357 q 100 374 100 357 l 113 496 q 131 513 115 513 m 306 114 q 287 114 306 114 q 243 139 267 114 q 220 202 220 163 q 251 271 220 241 q 322 302 283 302 q 385 277 361 302 q 409 214 409 252 q 377 144 409 175 q 306 114 345 114 z "},"ø":{"ha":694,"x_min":89,"x_max":635,"o":"m 535 884 l 236 -62 q 218 -76 231 -76 l 198 -71 q 184 -59 184 -68 l 485 893 q 503 905 489 905 l 520 901 q 535 884 535 899 m 321 -7 q 261 -7 321 -7 q 145 65 201 -7 q 89 275 89 137 q 103 444 89 340 q 130 594 117 547 q 164 687 142 642 q 217 761 186 732 q 399 826 284 826 q 610 707 562 826 q 635 552 635 643 q 622 365 635 462 q 595 221 608 268 q 561 131 583 175 q 509 57 539 86 q 321 -7 441 -7 m 441 290 q 460 424 448 326 q 472 570 472 523 q 389 686 472 686 q 324 648 349 686 q 283 524 298 611 q 252 238 252 348 q 334 128 252 128 q 400 166 374 128 q 441 290 426 203 z "},"ù":{"ha":724,"x_min":94,"x_max":683,"o":"m 427 14 l 432 66 q 246 -7 350 -7 q 131 50 168 -7 q 94 192 94 106 q 97 231 94 206 l 161 798 q 178 815 163 814 l 315 821 q 330 806 330 819 l 269 271 q 267 239 267 254 q 289 163 267 182 q 355 144 311 144 q 443 161 399 144 l 515 798 q 532 815 517 814 l 669 820 q 683 806 683 819 l 595 21 q 576 3 593 5 l 444 -3 q 427 14 427 -2 m 428 1198 l 498 926 q 481 906 498 907 l 402 903 q 380 918 386 903 l 262 1195 q 278 1212 262 1211 l 406 1217 q 428 1198 423 1216 z "},"ú":{"ha":724,"x_min":94,"x_max":683,"o":"m 427 14 l 432 66 q 246 -7 350 -7 q 131 50 168 -7 q 94 192 94 106 q 97 231 94 206 l 161 798 q 178 815 163 814 l 315 821 q 330 806 330 819 l 269 271 q 267 239 267 254 q 289 163 267 182 q 355 144 311 144 q 443 161 399 144 l 515 798 q 532 815 517 814 l 669 820 q 683 806 683 819 l 595 21 q 576 3 593 5 l 444 -3 q 427 14 427 -2 m 627 1206 l 497 926 q 473 911 490 913 l 382 908 q 368 922 368 909 l 459 1201 q 481 1219 465 1219 l 610 1224 q 627 1206 627 1223 z "},"û":{"ha":724,"x_min":94,"x_max":683,"o":"m 427 14 l 432 66 q 246 -7 350 -7 q 131 50 168 -7 q 94 192 94 106 q 97 231 94 206 l 161 798 q 178 815 163 814 l 315 821 q 330 806 330 819 l 269 271 q 267 239 267 254 q 289 163 267 182 q 355 144 311 144 q 443 161 399 144 l 515 798 q 532 815 517 814 l 669 820 q 683 806 683 819 l 595 21 q 576 3 593 5 l 444 -3 q 427 14 427 -2 m 548 1210 l 630 939 q 627 925 630 929 q 614 920 624 920 l 526 916 q 505 930 509 918 l 453 1083 l 357 937 q 332 920 347 921 l 243 916 q 229 930 229 918 l 382 1205 q 406 1223 391 1222 l 526 1227 q 548 1210 543 1227 z "},"ü":{"ha":724,"x_min":94,"x_max":683,"o":"m 427 14 l 432 66 q 246 -7 350 -7 q 131 50 168 -7 q 94 192 94 106 q 97 231 94 206 l 161 798 q 178 815 163 814 l 315 821 q 330 806 330 819 l 269 271 q 267 239 267 254 q 289 163 267 182 q 355 144 311 144 q 443 161 399 144 l 515 798 q 532 815 517 814 l 669 820 q 683 806 683 819 l 595 21 q 576 3 593 5 l 444 -3 q 427 14 427 -2 m 307 969 q 289 969 307 969 q 248 992 271 969 q 225 1052 225 1016 q 255 1118 225 1088 q 322 1147 285 1147 q 381 1123 359 1147 q 404 1063 404 1100 q 374 998 404 1027 q 307 969 344 969 m 577 969 q 559 969 577 969 q 518 993 541 969 q 496 1053 496 1017 q 525 1118 496 1090 q 592 1147 555 1147 q 652 1123 629 1147 q 675 1063 675 1100 q 645 998 675 1027 q 577 969 614 969 z "},"ý":{"ha":637,"x_min":96,"x_max":658,"o":"m 658 802 l 267 -308 q 247 -326 261 -325 l 111 -330 q 96 -317 96 -330 l 212 12 l 106 799 q 123 815 106 814 l 257 820 q 274 802 273 819 l 326 232 l 490 799 q 508 815 494 814 l 641 820 q 658 802 658 819 m 590 1206 l 460 926 q 436 911 453 913 l 345 908 q 330 922 330 909 l 422 1201 q 444 1219 428 1219 l 572 1224 q 590 1206 590 1223 z "},"þ":{"ha":716,"x_min":35,"x_max":658,"o":"m 35 -313 l 199 1124 q 216 1143 201 1141 l 348 1147 q 366 1129 366 1145 l 304 693 q 378 792 339 758 q 466 826 417 826 q 547 810 515 826 q 601 768 580 794 q 635 705 621 742 q 658 527 658 640 q 643 336 658 414 q 616 216 627 257 q 585 132 604 175 q 541 59 566 88 q 401 -7 486 -7 q 294 33 330 -7 q 241 131 264 66 l 204 -309 q 186 -326 203 -325 l 54 -330 q 35 -313 35 -330 m 487 508 q 400 670 487 670 q 338 635 362 670 q 297 495 315 600 q 280 342 280 390 q 281 281 280 294 q 283 247 281 268 q 291 211 286 225 q 305 182 296 196 q 362 152 323 152 q 425 187 401 152 q 460 280 448 222 q 487 508 487 405 z "},"ÿ":{"ha":637,"x_min":96,"x_max":658,"o":"m 658 802 l 267 -308 q 247 -326 261 -325 l 111 -330 q 96 -317 96 -330 l 212 12 l 106 799 q 123 815 106 814 l 257 820 q 274 802 273 819 l 326 232 l 490 799 q 508 815 494 814 l 641 820 q 658 802 658 819 m 270 969 q 252 969 270 969 q 211 992 233 969 q 188 1052 188 1016 q 218 1118 188 1088 q 284 1147 248 1147 q 344 1123 321 1147 q 367 1063 367 1100 q 337 998 367 1027 q 270 969 307 969 m 540 969 q 522 969 540 969 q 481 993 504 969 q 458 1053 458 1017 q 488 1118 458 1090 q 554 1147 517 1147 q 615 1123 591 1147 q 638 1063 638 1100 q 607 998 638 1027 q 540 969 576 969 z "},"ħ":{"ha":724,"x_min":72,"x_max":661,"o":"m 366 1129 l 323 749 q 509 826 414 826 q 653 701 623 826 q 661 637 661 667 q 659 589 661 607 l 594 20 q 577 2 591 3 l 440 -3 q 425 10 425 -1 l 487 547 q 489 579 489 565 q 463 655 489 635 q 396 675 437 675 q 313 658 356 675 l 241 20 q 224 2 238 3 l 87 -3 q 72 10 72 -1 l 198 1124 q 202 1138 199 1134 q 215 1143 205 1142 l 348 1147 q 366 1129 366 1145 m 104 1010 l 528 1025 q 543 1008 543 1025 l 532 917 q 514 899 530 901 l 92 885 q 76 901 76 886 l 87 993 q 104 1010 89 1010 z "},"Ĩ":{"ha":378,"x_min":64,"x_max":544,"o":"m 363 1040 l 247 19 q 229 2 245 3 l 90 -3 q 75 10 75 -3 l 192 1036 q 210 1052 195 1050 l 345 1057 q 363 1040 363 1056 m 225 1303 q 318 1283 262 1303 q 404 1262 374 1262 q 475 1280 434 1262 q 527 1298 516 1298 q 540 1286 538 1298 l 544 1236 q 529 1208 544 1221 q 504 1187 513 1194 q 474 1166 494 1179 q 387 1139 434 1139 q 288 1160 340 1139 q 204 1181 236 1181 q 132 1163 173 1181 q 80 1145 91 1145 q 68 1156 68 1145 l 64 1207 q 79 1235 64 1219 q 225 1303 145 1303 z "},"ĩ":{"ha":370,"x_min":42,"x_max":492,"o":"m 329 802 l 241 20 q 236 7 239 11 q 223 2 233 3 l 87 -3 q 72 10 72 -1 l 161 799 q 178 815 164 814 l 311 820 q 329 802 329 819 m 204 1130 q 283 1108 235 1130 q 357 1086 331 1086 q 422 1103 384 1086 q 474 1120 461 1120 q 488 1107 487 1120 l 492 1056 q 476 1028 492 1043 q 329 955 403 955 q 251 976 298 955 q 177 997 203 997 q 110 980 150 997 q 59 964 71 964 q 46 977 47 964 l 42 1027 q 57 1055 42 1040 q 204 1130 132 1130 z "},"ı":{"ha":370,"x_min":72,"x_max":329,"o":"m 329 802 l 241 20 q 236 7 239 11 q 223 2 233 3 l 87 -3 q 72 10 72 -1 l 161 799 q 178 815 164 814 l 311 820 q 329 802 329 819 z "},"Ĳ":{"ha":836,"x_min":68,"x_max":827,"o":"m 356 1040 l 240 19 q 222 2 238 3 l 83 -3 q 68 10 68 -3 l 185 1036 q 203 1052 188 1050 l 338 1057 q 356 1040 356 1056 m 827 1040 l 744 297 q 629 56 725 123 q 378 -7 539 -7 q 361 9 361 -7 l 377 141 q 394 157 380 157 q 551 214 517 157 q 571 282 566 239 l 656 1036 q 661 1048 658 1044 q 673 1052 664 1051 l 810 1057 q 827 1040 827 1055 z "},"ĳ":{"ha":720,"x_min":72,"x_max":714,"o":"m 254 894 q 233 894 254 894 q 186 920 212 894 q 161 988 161 947 q 195 1063 161 1030 q 271 1096 229 1096 q 339 1069 313 1096 q 365 1001 365 1043 q 330 927 365 960 q 254 894 296 894 m 329 802 l 241 20 q 236 7 239 11 q 223 2 233 3 l 87 -3 q 72 10 72 -1 l 161 799 q 178 815 164 814 l 311 820 q 329 802 329 819 m 416 -62 l 511 799 q 528 815 513 814 l 660 820 q 678 802 678 819 l 585 -26 q 491 -263 566 -188 q 269 -338 416 -338 q 252 -322 252 -338 l 268 -190 q 281 -174 269 -174 q 376 -146 344 -174 q 416 -62 409 -119 m 603 894 q 582 894 603 894 q 536 920 561 894 q 511 988 511 947 q 544 1063 511 1030 q 620 1096 578 1096 q 688 1069 662 1096 q 714 1001 714 1043 q 680 927 714 960 q 603 894 645 894 z "},"Ĵ":{"ha":475,"x_min":0,"x_max":623,"o":"m 467 1040 l 383 297 q 268 56 364 123 q 17 -7 178 -7 q 0 9 0 -7 l 16 141 q 33 157 20 157 q 190 214 157 157 q 210 282 205 239 l 296 1036 q 300 1048 297 1044 q 313 1052 303 1051 l 449 1057 q 467 1040 467 1055 m 504 1297 l 623 1146 q 606 1128 623 1129 l 508 1124 q 483 1138 500 1124 l 376 1230 l 263 1131 q 236 1115 247 1116 l 140 1111 q 125 1124 125 1112 l 279 1293 q 298 1307 290 1306 l 482 1315 q 504 1297 491 1315 z "},"ĵ":{"ha":355,"x_min":-106,"x_max":441,"o":"m 58 -66 l 153 799 q 170 815 155 814 l 302 823 q 321 805 321 821 l 227 -31 q 133 -268 209 -193 q -90 -343 58 -343 q -106 -327 -106 -343 l -90 -195 q -77 -178 -89 -178 q 18 -151 -14 -178 q 58 -66 51 -123 m 359 1210 l 441 939 q 438 925 441 929 q 425 920 435 920 l 337 916 q 315 930 319 918 l 264 1083 l 168 937 q 143 920 157 921 l 54 916 q 39 930 39 918 l 193 1205 q 216 1223 202 1222 l 336 1227 q 359 1210 353 1227 z "},"ķ":{"ha":665,"x_min":73,"x_max":649,"o":"m 600 14 q 582 2 600 2 l 437 -3 q 422 10 427 -2 l 284 400 l 241 20 q 237 7 240 11 q 224 2 233 3 l 87 -3 q 73 10 73 -1 l 198 1124 q 203 1138 199 1134 q 216 1143 206 1142 l 349 1147 q 366 1129 366 1145 l 289 443 l 469 798 q 492 815 477 814 l 632 820 q 649 804 649 818 q 646 791 649 797 l 444 439 l 598 22 q 600 14 600 18 m 294 -405 q 272 -422 283 -421 q 242 -424 261 -424 q 224 -412 224 -424 q 233 -346 224 -401 q 248 -222 243 -292 q 204 -190 219 -213 q 190 -130 190 -166 q 219 -62 190 -93 q 291 -31 248 -31 q 357 -59 333 -31 q 380 -136 380 -87 q 351 -277 380 -184 q 294 -405 321 -369 z "},"ĸ":{"ha":656,"x_min":64,"x_max":640,"o":"m 591 14 q 573 2 591 2 l 429 -3 q 414 10 418 -2 l 285 374 l 233 20 q 228 7 231 11 q 215 2 224 3 l 79 -3 q 64 10 64 -1 l 180 797 q 184 811 181 807 q 197 815 188 814 l 330 820 q 348 802 348 818 l 301 484 l 460 798 q 483 815 469 814 l 623 820 q 640 804 640 818 q 637 791 640 797 l 435 439 l 589 22 q 591 14 591 18 z "},"ŀ":{"ha":370,"x_min":72,"x_max":572,"o":"m 366 1129 l 241 21 q 236 7 239 12 q 223 3 233 3 l 87 -3 q 72 10 72 -1 l 197 1124 q 202 1138 199 1134 q 215 1143 205 1142 l 348 1147 q 366 1129 366 1145 m 455 377 q 433 377 455 377 q 384 405 411 377 q 357 477 357 433 q 393 555 357 521 q 473 590 429 590 q 545 562 517 590 q 572 490 572 534 q 536 412 572 446 q 455 377 500 377 z "},"Ł":{"ha":600,"x_min":-8,"x_max":542,"o":"m 23 432 l 458 681 q 467 684 460 684 q 478 679 473 684 q 484 669 484 675 l 470 552 q 465 539 469 543 q 452 530 461 536 l 14 279 q 6 277 11 277 q -4 282 1 277 q -8 293 -8 287 l 5 412 q 23 432 6 422 m 361 1040 l 264 178 l 524 189 q 542 171 542 188 l 524 31 q 507 12 522 13 l 89 -3 q 75 10 75 -3 l 191 1036 q 195 1048 192 1044 q 208 1052 198 1051 l 344 1057 q 361 1040 361 1056 z "},"ł":{"ha":370,"x_min":-26,"x_max":466,"o":"m 5 432 l 440 681 q 449 684 443 684 q 460 679 455 684 q 466 669 466 675 l 452 552 q 435 530 451 538 l -3 279 q -12 277 -6 277 q -21 282 -17 277 q -26 293 -26 287 l -13 412 q 5 432 -12 422 m 366 1129 l 241 21 q 236 7 239 12 q 223 3 233 3 l 87 -3 q 72 10 72 -1 l 197 1124 q 202 1138 199 1134 q 215 1143 205 1142 l 348 1147 q 366 1129 366 1145 z "},"Ń":{"ha":736,"x_min":75,"x_max":722,"o":"m 722 1043 l 605 22 q 587 5 602 6 l 453 -3 q 439 10 441 -3 l 297 734 l 247 19 q 229 2 246 3 l 90 -3 q 75 10 75 -3 l 192 1036 q 210 1052 195 1050 l 347 1059 q 360 1056 357 1059 q 365 1043 363 1052 l 503 359 l 550 1036 q 568 1052 551 1051 l 703 1059 q 722 1043 722 1059 m 635 1292 l 524 1151 q 494 1135 512 1137 l 405 1132 q 390 1145 390 1133 l 445 1282 q 474 1299 451 1298 l 618 1309 q 635 1292 635 1308 z "},"ń":{"ha":724,"x_min":72,"x_max":661,"o":"m 330 802 l 322 740 q 509 826 420 826 q 653 701 623 826 q 661 637 661 667 q 659 589 661 607 l 594 20 q 577 2 591 3 l 440 -3 q 425 10 425 -1 l 487 547 q 489 579 489 565 q 463 655 489 635 q 397 675 437 675 q 313 658 357 675 l 241 20 q 224 2 238 3 l 87 -3 q 72 10 72 -1 l 161 799 q 178 815 164 814 l 311 820 q 330 802 330 819 m 629 1206 l 499 926 q 475 911 492 913 l 385 908 q 370 922 370 909 l 461 1201 q 484 1219 467 1219 l 612 1224 q 629 1206 629 1223 z "},"Œ":{"ha":969,"x_min":94,"x_max":954,"o":"m 308 -7 q 212 12 255 -7 q 144 64 169 31 q 94 227 94 130 q 109 479 94 327 q 139 711 125 631 q 162 824 154 791 q 183 892 170 857 q 212 952 196 928 q 251 998 228 976 q 304 1034 275 1021 q 445 1063 369 1063 q 565 1037 521 1063 q 633 968 608 1011 q 682 772 682 884 q 630 369 682 660 q 566 140 600 206 q 473 33 526 65 q 308 -7 406 -7 m 314 750 q 307 706 314 750 q 283 497 299 662 q 267 244 267 333 q 350 155 267 155 q 461 308 434 155 q 494 566 477 401 q 511 815 511 730 q 434 901 511 901 q 358 869 387 901 q 314 750 330 838 m 863 464 l 652 456 l 620 178 l 880 186 q 897 169 897 186 l 880 28 q 862 11 878 14 l 445 -3 q 430 10 430 -3 l 547 1036 q 565 1052 550 1050 l 937 1065 q 954 1046 954 1063 l 937 906 q 919 888 935 889 l 701 882 l 671 629 l 880 637 q 898 619 898 636 l 880 481 q 863 464 878 465 z "},"œ":{"ha":1041,"x_min":89,"x_max":979,"o":"m 332 -10 q 89 275 89 -10 q 102 457 89 364 q 125 595 115 549 q 157 686 136 640 q 207 761 178 732 q 393 826 273 826 q 564 736 513 826 q 774 826 640 826 q 926 759 873 826 q 979 579 979 692 q 966 396 979 465 q 944 376 962 377 l 614 365 q 612 310 612 334 q 638 187 612 233 q 713 141 665 141 q 822 157 779 141 q 873 174 865 174 q 895 153 895 174 l 882 33 q 858 12 881 18 q 782 -3 835 5 q 686 -10 728 -10 q 507 77 567 -10 q 332 -10 447 -10 m 472 564 q 389 686 472 686 q 319 646 343 686 q 262 395 284 588 q 252 277 252 308 q 253 229 252 245 q 259 192 254 213 q 273 159 264 172 q 336 128 293 128 q 403 166 379 128 q 441 289 427 205 q 472 564 472 499 m 752 679 q 672 640 703 679 q 624 475 642 601 l 787 480 q 812 488 805 481 q 823 544 823 499 q 818 613 823 589 q 796 658 813 637 q 752 679 779 679 z "},"Ŕ":{"ha":700,"x_min":75,"x_max":682,"o":"m 652 16 q 633 3 652 3 l 481 -3 q 466 10 471 -2 l 296 441 l 248 19 q 231 2 246 3 l 90 -3 q 75 10 75 -1 l 192 1031 q 198 1047 193 1043 q 270 1058 203 1052 q 449 1063 337 1063 q 622 1004 561 1063 q 682 851 682 945 q 660 686 682 758 q 586 557 637 614 q 457 473 534 500 l 650 24 q 652 16 652 20 m 348 905 l 310 568 q 483 682 435 576 q 509 801 509 741 q 484 885 509 861 q 412 909 459 909 q 348 905 366 909 m 620 1292 l 509 1151 q 478 1135 496 1137 l 389 1132 q 374 1145 374 1133 l 429 1282 q 458 1299 435 1298 l 602 1309 q 620 1292 620 1308 z "},"Ŗ":{"ha":700,"x_min":75,"x_max":682,"o":"m 652 16 q 633 3 652 3 l 481 -3 q 466 10 471 -2 l 296 441 l 248 19 q 231 2 246 3 l 90 -3 q 75 10 75 -1 l 192 1031 q 198 1047 193 1043 q 270 1058 203 1052 q 449 1063 337 1063 q 622 1004 561 1063 q 682 851 682 945 q 660 686 682 758 q 586 557 637 614 q 457 473 534 500 l 650 24 q 652 16 652 20 m 348 905 l 310 568 q 483 682 435 576 q 509 801 509 741 q 484 885 509 861 q 412 909 459 909 q 348 905 366 909 m 326 -405 q 303 -422 315 -421 q 274 -424 292 -424 q 255 -412 255 -424 q 264 -346 255 -401 q 279 -222 274 -292 q 236 -190 250 -213 q 221 -130 221 -166 q 250 -62 221 -93 q 322 -31 279 -31 q 388 -59 364 -31 q 412 -136 412 -87 q 382 -277 412 -184 q 326 -405 352 -369 z "},"ŗ":{"ha":538,"x_min":45,"x_max":564,"o":"m 528 647 l 456 654 q 308 619 368 654 l 241 21 q 224 3 238 4 l 87 -3 q 72 10 72 -1 l 161 799 q 178 815 164 814 l 311 820 q 329 802 329 819 l 321 732 q 405 801 364 777 q 487 826 446 826 q 549 823 528 826 q 564 804 564 820 q 548 665 564 757 q 528 647 545 647 m 149 -405 q 127 -422 138 -421 q 97 -424 116 -424 q 79 -412 79 -424 q 88 -346 79 -401 q 102 -222 98 -292 q 59 -190 74 -213 q 45 -130 45 -166 q 74 -62 45 -93 q 145 -31 103 -31 q 212 -59 188 -31 q 235 -136 235 -87 q 205 -277 235 -184 q 149 -405 176 -369 z "},"Ř":{"ha":700,"x_min":75,"x_max":712,"o":"m 652 16 q 633 3 652 3 l 481 -3 q 466 10 471 -2 l 296 441 l 248 19 q 231 2 246 3 l 90 -3 q 75 10 75 -1 l 192 1031 q 198 1047 193 1043 q 270 1058 203 1052 q 449 1063 337 1063 q 622 1004 561 1063 q 682 851 682 945 q 660 686 682 758 q 586 557 637 614 q 457 473 534 500 l 650 24 q 652 16 652 20 m 348 905 l 310 568 q 483 682 435 576 q 509 801 509 741 q 484 885 509 861 q 412 909 459 909 q 348 905 366 909 m 333 1128 l 214 1280 q 231 1298 214 1297 l 329 1301 q 354 1288 336 1301 l 460 1196 l 574 1295 q 601 1311 590 1310 l 697 1315 q 712 1301 712 1314 l 558 1133 q 538 1119 547 1120 l 355 1111 q 333 1128 346 1111 z "},"ř":{"ha":538,"x_min":72,"x_max":564,"o":"m 528 647 l 456 654 q 308 619 368 654 l 241 21 q 224 3 238 4 l 87 -3 q 72 10 72 -1 l 161 799 q 178 815 164 814 l 311 820 q 329 802 329 819 l 321 732 q 405 801 364 777 q 487 826 446 826 q 549 823 528 826 q 564 804 564 820 q 548 665 564 757 q 528 647 545 647 m 208 935 l 125 1206 q 129 1220 125 1216 q 142 1225 132 1225 l 229 1229 q 251 1215 247 1227 l 302 1062 l 399 1208 q 423 1225 409 1224 l 513 1229 q 527 1215 527 1227 l 373 940 q 350 922 364 923 l 230 918 q 208 935 213 918 z "},"ȷ":{"ha":369,"x_min":-98,"x_max":328,"o":"m 66 -66 l 160 799 q 177 815 163 814 l 310 823 q 328 805 328 821 l 234 -31 q 141 -268 216 -193 q -82 -343 65 -343 q -98 -327 -98 -343 l -83 -195 q -69 -178 -81 -178 q 26 -151 -7 -178 q 66 -66 58 -123 z "},"ˆ":{"ha":595,"x_min":96,"x_max":498,"o":"m 416 1133 l 498 862 q 495 847 498 852 q 481 842 492 843 l 394 839 q 372 852 376 840 l 321 1006 l 224 859 q 200 843 214 844 l 111 839 q 96 852 96 840 l 250 1128 q 273 1145 259 1145 l 393 1150 q 416 1133 410 1149 z "},"˚":{"ha":595,"x_min":134,"x_max":461,"o":"m 283 841 q 250 841 283 841 q 175 879 216 841 q 134 978 134 916 q 188 1086 134 1040 q 311 1133 242 1133 q 420 1095 379 1133 q 461 996 461 1057 q 406 888 461 935 q 283 841 351 841 m 304 1061 q 287 1061 304 1061 q 242 1037 269 1061 q 214 982 214 1014 q 234 931 214 949 q 290 912 254 912 q 353 936 326 912 q 381 990 381 959 q 360 1041 381 1022 q 304 1061 339 1061 z "},"˜":{"ha":595,"x_min":72,"x_max":522,"o":"m 234 1053 q 313 1031 264 1053 q 387 1009 361 1009 q 452 1026 414 1009 q 504 1042 491 1042 q 518 1029 517 1042 l 522 979 q 506 951 522 966 q 359 878 433 878 q 280 899 328 878 q 207 920 233 920 q 140 903 180 920 q 89 886 100 886 q 76 899 77 886 l 72 950 q 87 978 72 963 q 234 1053 161 1053 z "},"–":{"ha":954,"x_min":115,"x_max":890,"o":"m 147 600 l 873 625 q 890 608 890 624 l 874 486 q 870 473 873 477 q 858 469 867 469 l 133 444 q 115 460 115 444 l 130 583 q 147 600 132 600 z "},"—":{"ha":1718,"x_min":115,"x_max":1657,"o":"m 147 600 l 1640 653 q 1657 635 1657 652 l 1642 514 q 1625 496 1639 497 l 133 444 q 115 460 115 444 l 130 583 q 147 600 132 600 z "},"‘":{"ha":397,"x_min":168,"x_max":382,"o":"m 361 1168 q 342 1082 361 1159 q 319 932 324 1005 q 366 896 350 922 q 382 831 382 870 q 347 758 382 793 q 266 724 311 724 q 194 755 220 724 q 168 831 168 786 q 205 1009 168 912 q 290 1177 260 1158 q 347 1182 298 1182 q 361 1168 361 1182 z "},"’":{"ha":397,"x_min":164,"x_max":378,"o":"m 186 737 q 204 823 186 746 q 228 973 222 900 q 180 1009 197 983 q 164 1074 164 1035 q 200 1147 164 1112 q 281 1181 235 1181 q 353 1150 327 1181 q 378 1074 378 1119 q 342 895 378 993 q 256 728 286 747 q 199 723 248 723 q 186 737 186 723 z "},"‚":{"ha":397,"x_min":67,"x_max":281,"o":"m 89 -239 q 107 -153 89 -230 q 131 -3 125 -76 q 83 33 100 7 q 67 98 67 59 q 103 171 67 136 q 184 205 138 205 q 256 174 230 205 q 281 98 281 143 q 245 -80 281 17 q 159 -248 189 -229 q 102 -253 151 -253 q 89 -239 89 -253 z "},"“":{"ha":715,"x_min":168,"x_max":701,"o":"m 361 1168 q 342 1082 361 1159 q 319 932 324 1005 q 366 896 350 922 q 382 831 382 870 q 347 758 382 793 q 266 724 311 724 q 194 755 220 724 q 168 831 168 786 q 205 1009 168 912 q 290 1177 260 1158 q 347 1182 298 1182 q 361 1168 361 1182 m 680 1168 q 661 1082 680 1159 q 637 932 643 1005 q 685 896 669 922 q 701 831 701 870 q 666 758 701 793 q 584 724 630 724 q 513 755 538 724 q 487 831 487 786 q 524 1009 487 912 q 609 1177 579 1158 q 666 1182 617 1182 q 680 1168 680 1182 z "},"”":{"ha":716,"x_min":164,"x_max":698,"o":"m 186 737 q 204 823 186 746 q 228 973 222 900 q 180 1009 197 983 q 164 1074 164 1035 q 200 1147 164 1112 q 281 1181 235 1181 q 353 1150 327 1181 q 378 1074 378 1119 q 342 895 378 993 q 256 728 286 747 q 199 723 248 723 q 186 737 186 723 m 505 737 q 524 823 505 746 q 547 973 542 900 q 500 1009 516 983 q 484 1074 484 1035 q 519 1147 484 1112 q 601 1181 555 1181 q 672 1150 646 1181 q 698 1074 698 1119 q 661 895 698 993 q 576 728 606 747 q 519 723 568 723 q 505 737 505 723 z "},"„":{"ha":715,"x_min":67,"x_max":600,"o":"m 89 -239 q 107 -153 89 -230 q 131 -3 125 -76 q 83 33 100 7 q 67 98 67 59 q 103 171 67 136 q 184 205 138 205 q 256 174 230 205 q 281 98 281 143 q 245 -80 281 17 q 159 -248 189 -229 q 102 -253 151 -253 q 89 -239 89 -253 m 408 -239 q 426 -153 408 -230 q 450 -3 444 -76 q 402 33 418 7 q 386 98 386 59 q 421 171 386 136 q 503 205 457 205 q 574 174 549 205 q 600 98 600 143 q 564 -80 600 17 q 478 -248 508 -229 q 421 -253 470 -253 q 408 -239 408 -253 z "},"•":{"ha":397,"x_min":91,"x_max":366,"o":"m 217 347 q 188 347 217 347 q 125 382 160 347 q 91 475 91 418 q 136 576 91 532 q 238 620 181 620 q 330 584 295 620 q 366 492 366 548 q 319 391 366 435 q 217 347 273 347 z "},"‹":{"ha":500,"x_min":125,"x_max":503,"o":"m 503 671 l 309 401 l 420 124 q 403 106 420 107 l 291 102 q 269 116 276 102 l 127 380 q 125 390 125 385 q 130 400 125 395 l 338 667 q 367 684 351 684 l 486 688 q 503 671 503 688 z "},"›":{"ha":500,"x_min":14,"x_max":391,"o":"m 14 123 l 208 393 l 97 669 q 114 688 97 686 l 226 692 q 248 677 241 691 l 389 413 q 391 404 391 408 q 387 393 391 399 l 179 127 q 150 109 166 110 l 31 105 q 14 123 14 106 z "},"€":{"ha":654,"x_min":49,"x_max":654,"o":"m 558 31 q 553 19 557 22 q 487 4 550 16 q 359 -7 424 -7 q 197 61 254 -7 q 141 248 141 130 q 191 734 141 457 q 256 944 218 884 q 354 1032 297 1007 q 506 1063 425 1063 q 615 1059 587 1063 q 646 1054 642 1055 q 654 1037 654 1051 l 639 911 q 625 893 636 893 q 575 899 614 893 q 511 905 536 905 q 412 872 446 905 q 362 746 378 839 q 330 495 345 652 q 314 255 314 338 q 401 157 314 157 q 488 165 426 157 q 559 174 551 174 q 574 157 574 174 l 558 31 m 108 696 l 552 713 q 568 696 568 712 l 553 574 q 536 557 551 557 l 93 540 q 77 557 77 541 l 90 679 q 108 696 92 696 m 80 458 l 524 474 q 540 457 540 473 l 526 335 q 509 318 524 319 l 65 301 q 49 319 49 302 l 62 440 q 80 458 64 458 z "}}}
